<svg version="1.1" xmlns="http://www.w3.org/2000/svg" viewBox="0 0 1220.6722738184517 687.6490346898013" width="2441.3445476369034" height="1375.2980693796026">
  <!-- svg-source:excalidraw -->
  
  <defs>
    <style class="style-fonts">
      @font-face {
        font-family: "Virgil";
        src: url("https://excalidraw.com/Virgil.woff2");
      }
      @font-face {
        font-family: "Cascadia";
        src: url("https://excalidraw.com/Cascadia.woff2");
      }
      @font-face {
        font-family: "Assistant";
        src: url("https://excalidraw.com/Assistant-Regular.woff2");
      }
    </style>
    
  </defs>
  <rect x="0" y="0" width="1220.6722738184517" height="687.6490346898013" fill="#ffffff"></rect><g stroke-linecap="round" transform="translate(467.963866949382 642.6490346898013) rotate(0 149.67901611328125 17.5)"><path d="M8.75 0 C106.83 -1.29, 197.83 -0.63, 290.61 0 C299.26 -0.49, 302.19 6.01, 299.36 8.75 C299.07 11.28, 300.06 16.23, 299.36 26.25 C300.51 29.58, 296.41 38.44, 290.61 35 C203.92 39, 119.63 36.33, 8.75 35 C6.31 32.62, -0.13 32.09, 0 26.25 C1.85 20.05, 2.01 17.38, 0 8.75 C-2.03 4.7, 1.61 -1.29, 8.75 0" stroke="none" stroke-width="0" fill="#ffc9c9"></path><path d="M8.75 0 C76.58 1.35, 145.09 1.56, 290.61 0 M8.75 0 C105.37 -0.96, 201.08 -0.79, 290.61 0 M290.61 0 C296.13 -0.45, 298.84 1.08, 299.36 8.75 M290.61 0 C295.1 0.93, 298.8 0.68, 299.36 8.75 M299.36 8.75 C300.17 13.25, 300.4 18.12, 299.36 26.25 M299.36 8.75 C299.32 12.86, 299.45 16.62, 299.36 26.25 M299.36 26.25 C298.63 32.32, 295.08 34.58, 290.61 35 M299.36 26.25 C299.85 32.72, 298.34 35.24, 290.61 35 M290.61 35 C211.94 36.39, 134.4 36.25, 8.75 35 M290.61 35 C205.79 36.62, 120.48 36.28, 8.75 35 M8.75 35 C1.46 36.93, 1.41 31.32, 0 26.25 M8.75 35 C3.66 34.9, -2.29 29.83, 0 26.25 M0 26.25 C0.15 21.03, 0.94 15.83, 0 8.75 M0 26.25 C-0.42 23.19, 0.26 19.21, 0 8.75 M0 8.75 C1.57 2.86, 3.16 -0.19, 8.75 0 M0 8.75 C0.92 3.46, 2.05 -0.55, 8.75 0" stroke="#1e1e1e" stroke-width="2" fill="none"></path></g><g transform="translate(540.662955999675 647.6490346898013) rotate(0 76.97992706298828 12.5)"><text x="76.97992706298828" y="17.52" font-family="Virgil, Segoe UI Emoji" font-size="20px" fill="#1e1e1e" text-anchor="middle" style="white-space: pre;" direction="ltr" dominant-baseline="alphabetic">Input embedding</text></g><g stroke-linecap="round" transform="translate(10 134.29915654686448) rotate(0 183.05531225722325 223.2277069091797)"><path d="M32 0 C101.56 -1.11, 172.08 -3.44, 334.11 0 M32 0 C140.65 0.39, 247.9 0.87, 334.11 0 M334.11 0 C354.05 -1.67, 364.95 11.68, 366.11 32 M334.11 0 C353.86 1.27, 365.51 9.37, 366.11 32 M366.11 32 C366.17 166.62, 365.49 299.68, 366.11 414.46 M366.11 32 C367.51 146.19, 366.96 260.42, 366.11 414.46 M366.11 414.46 C365.27 437.14, 356.73 447.31, 334.11 446.46 M366.11 414.46 C367.1 434.4, 354.8 448.36, 334.11 446.46 M334.11 446.46 C241.7 447.79, 149.63 449.58, 32 446.46 M334.11 446.46 C213.99 447.55, 94.41 448.01, 32 446.46 M32 446.46 C9.55 445.81, -1.78 436.11, 0 414.46 M32 446.46 C12.5 447.41, 1.2 434.76, 0 414.46 M0 414.46 C0.98 266.7, 1.86 118.69, 0 32 M0 414.46 C0.41 269.57, 0.64 125.54, 0 32 M0 32 C-0.21 9.98, 11.22 1.77, 32 0 M0 32 C0.11 12.32, 10.08 2.06, 32 0" stroke="#1e1e1e" stroke-width="2" fill="none"></path></g><g stroke-linecap="round" transform="translate(43.24056836210275 492.9781543163447) rotate(0 139.54690551757812 35.01055908203125)"><path d="M17.51 0 C74.55 1.54, 124.51 1.73, 261.59 0 C271.23 -3.02, 281.36 4.7, 279.09 17.51 C278.79 30.84, 276.29 40.82, 279.09 52.52 C275.7 65.93, 274.63 70.62, 261.59 70.02 C172.93 73.63, 81.25 73.17, 17.51 70.02 C4.22 69.75, -0.39 63.84, 0 52.52 C-3.4 44.52, 1.64 36.07, 0 17.51 C-1.3 8.3, 2.76 -2.35, 17.51 0" stroke="none" stroke-width="0" fill="#ffec99"></path><path d="M17.51 0 C107.27 -0.15, 193.52 2.45, 261.59 0 M17.51 0 C99.41 0.72, 179.68 1.26, 261.59 0 M261.59 0 C273.82 -1.78, 280.72 5.12, 279.09 17.51 M261.59 0 C271.7 -1.9, 280.88 3.63, 279.09 17.51 M279.09 17.51 C277.86 29.03, 280.49 34.94, 279.09 52.52 M279.09 17.51 C278.78 29.67, 278.9 42.64, 279.09 52.52 M279.09 52.52 C277.53 65.19, 273.99 70.96, 261.59 70.02 M279.09 52.52 C278.97 65.53, 272.78 70.43, 261.59 70.02 M261.59 70.02 C198.78 68.51, 135.57 67.72, 17.51 70.02 M261.59 70.02 C203.82 68.99, 144.52 68.84, 17.51 70.02 M17.51 70.02 C5.11 68.48, -1.25 64.9, 0 52.52 M17.51 70.02 C4.2 67.98, 1.92 64.37, 0 52.52 M0 52.52 C1.67 43.1, -1.02 33.83, 0 17.51 M0 52.52 C0.54 39.21, -0.87 27.38, 0 17.51 M0 17.51 C-0.17 7.79, 5.12 -1.12, 17.51 0 M0 17.51 C1.93 3.73, 4.26 -2.26, 17.51 0" stroke="#1e1e1e" stroke-width="2" fill="none"></path></g><g transform="translate(80.4775678738215 515.4887133983759) rotate(0 102.30990600585938 12.5)"><text x="102.30990600585938" y="17.52" font-family="Virgil, Segoe UI Emoji" font-size="20px" fill="#1e1e1e" text-anchor="middle" style="white-space: pre;" direction="ltr" dominant-baseline="alphabetic">Multi-Head Attention</text></g><g stroke-linecap="round" transform="translate(46.93820019804025 441.0606738475947) rotate(0 136.5433349609375 19.08331298828125)"><path d="M9.54 0 C97.42 -1.26, 181.13 -1, 263.55 0 C267.51 -2.74, 273.53 1.67, 273.09 9.54 C270.63 18.08, 273.95 18.74, 273.09 28.62 C273.02 33.78, 267.97 37.3, 263.55 38.17 C174 37.53, 78.68 36.83, 9.54 38.17 C0.26 38.27, 1.38 34.72, 0 28.62 C-3.21 26.23, -0.98 19.82, 0 9.54 C-0.37 3.94, 2.38 -1.49, 9.54 0" stroke="none" stroke-width="0" fill="#ffec99"></path><path d="M9.54 0 C69.98 -1.54, 131.35 -0.5, 263.55 0 M9.54 0 C92.45 -1.68, 173.76 -1.61, 263.55 0 M263.55 0 C268.02 0.77, 273.71 2.69, 273.09 9.54 M263.55 0 C268.16 0.87, 273.99 3.71, 273.09 9.54 M273.09 9.54 C273.67 17.06, 271.92 22.6, 273.09 28.62 M273.09 9.54 C272.91 16.58, 273.58 24.64, 273.09 28.62 M273.09 28.62 C274.91 34.94, 270.16 36.27, 263.55 38.17 M273.09 28.62 C275.16 36.92, 270 38.58, 263.55 38.17 M263.55 38.17 C191.81 37.37, 117.49 37.26, 9.54 38.17 M263.55 38.17 C181.06 39.25, 98.93 40.49, 9.54 38.17 M9.54 38.17 C3.04 38.33, 1.5 34.66, 0 28.62 M9.54 38.17 C3.39 36, 0.63 35.42, 0 28.62 M0 28.62 C-1.4 20.56, -0.77 14.98, 0 9.54 M0 28.62 C0.82 22.28, 0.33 16.44, 0 9.54 M0 9.54 C0.21 3.33, 4.9 1.84, 9.54 0 M0 9.54 C-0.14 2.05, 4.15 1.53, 9.54 0" stroke="#1e1e1e" stroke-width="2" fill="none"></path></g><g transform="translate(104.0015928372004 447.643986835876) rotate(0 79.47994232177734 12.5)"><text x="79.47994232177734" y="17.52" font-family="Virgil, Segoe UI Emoji" font-size="20px" fill="#1e1e1e" text-anchor="middle" style="white-space: pre;" direction="ltr" dominant-baseline="alphabetic">Add + Normalize</text></g><g stroke-linecap="round"><g transform="translate(183.38448926054025 493.8093310741572) rotate(0 -0.061370849609375 -7.716217041015625)"><path d="M-0.29 -0.52 C-0.24 -3.12, -0.18 -12.6, -0.1 -15.17 M0.57 0.4 C0.58 -2.4, -0.43 -13.34, -0.52 -15.99" stroke="#1e1e1e" stroke-width="2" fill="none"></path></g><g transform="translate(183.38448926054025 493.8093310741572) rotate(0 -0.061370849609375 -7.716217041015625)"><path d="M2.59 -8.93 C1.49 -10.54, 1.32 -11.95, -0.52 -15.99 M2.59 -8.93 C1.77 -10.33, 1.2 -12.11, -0.52 -15.99" stroke="#1e1e1e" stroke-width="2" fill="none"></path></g><g transform="translate(183.38448926054025 493.8093310741572) rotate(0 -0.061370849609375 -7.716217041015625)"><path d="M-2.68 -8.59 C-2.57 -10.26, -1.53 -11.75, -0.52 -15.99 M-2.68 -8.59 C-2.36 -10.09, -1.8 -11.93, -0.52 -15.99" stroke="#1e1e1e" stroke-width="2" fill="none"></path></g></g><mask></mask><g stroke-linecap="round"><g transform="translate(182.18331738554025 398.9339648632197) rotate(0 0.180694580078125 20.76446533203125)"><path d="M-0.47 -0.3 C-0.39 6.64, 0.44 34.26, 0.5 41.18 M0.29 0.74 C0.31 7.78, 0.02 34.88, 0.13 41.7" stroke="#1e1e1e" stroke-width="2" fill="none"></path></g></g><mask></mask><g stroke-linecap="round" transform="translate(86.88131543241525 364.3861133007197) rotate(0 89.293212890625 17.5)"><path d="M8.75 0 C58.19 0.58, 102.53 -0.56, 169.84 0 C177.1 2.86, 176.16 3.73, 178.59 8.75 C175.79 15.34, 179.07 20.88, 178.59 26.25 C177.49 31.47, 179.23 35.94, 169.84 35 C130.71 30.64, 96.58 29.99, 8.75 35 C4.64 36.48, -0.04 35.24, 0 26.25 C-2.21 23.59, 0.49 17.93, 0 8.75 C2.4 5.84, -0.68 3.26, 8.75 0" stroke="none" stroke-width="0" fill="#a5d8ff"></path><path d="M8.75 0 C61.16 -0.52, 112.44 -1.55, 169.84 0 M8.75 0 C41.96 -2.17, 76.06 -0.96, 169.84 0 M169.84 0 C177.08 0.16, 176.85 2.96, 178.59 8.75 M169.84 0 C175.66 1.83, 180.86 4.28, 178.59 8.75 M178.59 8.75 C179.49 16.63, 178.22 22.96, 178.59 26.25 M178.59 8.75 C178.06 14.11, 179 19.46, 178.59 26.25 M178.59 26.25 C177.18 30.67, 174.62 35.87, 169.84 35 M178.59 26.25 C177.09 31.18, 177.12 35.27, 169.84 35 M169.84 35 C125.01 32.22, 80.19 32.68, 8.75 35 M169.84 35 C113.59 36.98, 56.25 36.55, 8.75 35 M8.75 35 C1.91 36.01, 1.03 33.55, 0 26.25 M8.75 35 C4.84 35.54, -1.32 32.49, 0 26.25 M0 26.25 C-1.67 21.08, -0.62 17.2, 0 8.75 M0 26.25 C0.02 22.66, -0.83 18.35, 0 8.75 M0 8.75 C0.22 3.71, 1.96 -1.43, 8.75 0 M0 8.75 C-0.19 5.15, 4.71 -1.74, 8.75 0" stroke="#1e1e1e" stroke-width="2" fill="none"></path></g><g transform="translate(142.75456067167306 369.3861133007197) rotate(0 33.41996765136719 12.5)"><text x="33.41996765136719" y="17.52" font-family="Virgil, Segoe UI Emoji" font-size="20px" fill="#1e1e1e" text-anchor="middle" style="white-space: pre;" direction="ltr" dominant-baseline="alphabetic">Router</text></g><g stroke-linecap="round" transform="translate(39.556547366009 162.21472658196973) rotate(0 136.5433349609375 19.08331298828125)"><path d="M9.54 0 C101.95 -1.7, 189.34 0.41, 263.55 0 C272.87 -1.8, 270.47 3.4, 273.09 9.54 C270.22 18.31, 274.51 19.59, 273.09 28.62 C276.3 38.06, 271.7 37.18, 263.55 38.17 C195.89 40.14, 128.31 43.22, 9.54 38.17 C0.81 38.18, -0.99 36.89, 0 28.62 C1.67 23.62, 1.57 16.72, 0 9.54 C-2.43 3.55, 3.58 1.92, 9.54 0" stroke="none" stroke-width="0" fill="#ffec99"></path><path d="M9.54 0 C90.55 -0.51, 171.72 -2.31, 263.55 0 M9.54 0 C68.7 -2.27, 128.67 -2.32, 263.55 0 M263.55 0 C270.17 -0.64, 272.65 5.04, 273.09 9.54 M263.55 0 C270.39 -1.11, 274.46 4.99, 273.09 9.54 M273.09 9.54 C272.05 13.85, 274.19 19.76, 273.09 28.62 M273.09 9.54 C273.83 13.98, 273.4 18.92, 273.09 28.62 M273.09 28.62 C273.6 33.67, 270.72 39.81, 263.55 38.17 M273.09 28.62 C273.3 35.51, 271.62 37.62, 263.55 38.17 M263.55 38.17 C204.47 36.08, 144.37 36.28, 9.54 38.17 M263.55 38.17 C190.16 38.05, 115.31 38.29, 9.54 38.17 M9.54 38.17 C2.3 36.55, -1.06 35.5, 0 28.62 M9.54 38.17 C4.93 36.14, 0.85 34.06, 0 28.62 M0 28.62 C0.02 20.34, -1.79 14.7, 0 9.54 M0 28.62 C-0.25 23.8, 0.5 18.96, 0 9.54 M0 9.54 C-0.18 4.64, 2.26 0.32, 9.54 0 M0 9.54 C-1.79 5.01, 4.72 1.91, 9.54 0" stroke="#1e1e1e" stroke-width="2" fill="none"></path></g><g transform="translate(96.61994000516916 168.79803957025098) rotate(0 79.47994232177734 12.5)"><text x="79.47994232177734" y="17.52" font-family="Virgil, Segoe UI Emoji" font-size="20px" fill="#1e1e1e" text-anchor="middle" style="white-space: pre;" direction="ltr" dominant-baseline="alphabetic">Add + Normalize</text></g><g stroke-linecap="round"><g transform="translate(176.48669555856236 241.018674492584) rotate(0 -0.7800155025266804 -21.33732246604933)"><path d="M0.4 -0.16 C0.1 -7.33, -1.56 -35.93, -1.83 -42.93 M-0.05 -0.72 C-0.18 -7.83, -0.51 -35.32, -0.74 -42.36" stroke="#1e1e1e" stroke-width="2" fill="none"></path></g><g transform="translate(176.48669555856236 241.018674492584) rotate(0 -0.7800155025266804 -21.33732246604933)"><path d="M6.98 -22.46 C4.34 -28.93, 1.85 -33.86, -0.74 -42.36 M6.98 -22.46 C4.31 -30.11, 0.98 -38.17, -0.74 -42.36" stroke="#1e1e1e" stroke-width="2" fill="none"></path></g><g transform="translate(176.48669555856236 241.018674492584) rotate(0 -0.7800155025266804 -21.33732246604933)"><path d="M-7.62 -22.15 C-5.86 -28.77, -3.95 -33.79, -0.74 -42.36 M-7.62 -22.15 C-4.57 -29.98, -2.17 -38.16, -0.74 -42.36" stroke="#1e1e1e" stroke-width="2" fill="none"></path></g></g><mask></mask><g stroke-linecap="round"><g transform="translate(181.7481977081418 417.470891132751) rotate(0 90.79243595186813 -0.501122052276969)"><path d="M-1.06 -0.24 C29.18 -0.25, 150.4 -0.15, 181.03 -0.37 M0.59 -1.41 C30.66 -1.75, 149.46 -2.31, 179.8 -2.17" stroke="#1e1e1e" stroke-width="2" fill="none"></path></g></g><mask></mask><g stroke-linecap="round"><g transform="translate(359.24483436391347 419.712102070251) rotate(0 0.13519287109375 -119.55966186523438)"><path d="M-0.28 -0.49 C-0.24 -40.34, 0.79 -200.1, 0.89 -240 M1.77 -1.79 C1.65 -41.44, 0.64 -199.39, 0.27 -238.93" stroke="#1e1e1e" stroke-width="2" fill="none"></path></g></g><mask></mask><g stroke-linecap="round"><g transform="translate(360.2076579679542 178.5618590674404) rotate(0 -22.36202380683187 -0.6385824303155658)"><path d="M-0.33 -0.53 C-7.76 -0.9, -37.14 -1.63, -44.46 -1.78 M0.5 0.39 C-6.99 0.03, -37.28 -1.13, -44.75 -1.33" stroke="#1e1e1e" stroke-width="2" fill="none"></path></g><g transform="translate(360.2076579679542 178.5618590674404) rotate(0 -22.36202380683187 -0.6385824303155658)"><path d="M-23.48 -8.27 C-31.23 -5.62, -38 -2.94, -44.75 -1.33 M-23.48 -8.27 C-29.18 -5.97, -35.6 -4.95, -44.75 -1.33" stroke="#1e1e1e" stroke-width="2" fill="none"></path></g><g transform="translate(360.2076579679542 178.5618590674404) rotate(0 -22.36202380683187 -0.6385824303155658)"><path d="M-24 7.02 C-31.65 4.77, -38.25 2.55, -44.75 -1.33 M-24 7.02 C-29.54 5.03, -35.81 1.76, -44.75 -1.33" stroke="#1e1e1e" stroke-width="2" fill="none"></path></g></g><mask></mask><g stroke-linecap="round" transform="translate(480.11183727539765 10) rotate(0 136.5433349609375 19.08331298828125)"><path d="M9.54 0 C99 3.07, 184.23 1.6, 263.55 0 C271.9 -1.53, 271.87 3.13, 273.09 9.54 C275.74 15.81, 271.67 18.88, 273.09 28.62 C275.83 35.9, 273.42 38.88, 263.55 38.17 C181.31 36.23, 97.31 37.14, 9.54 38.17 C5.32 37.59, 0.24 32.22, 0 28.62 C-0.04 25.9, 2.02 17.74, 0 9.54 C0.67 3.62, 3.81 3.45, 9.54 0" stroke="none" stroke-width="0" fill="#ffc9c9"></path><path d="M9.54 0 C75.54 0.46, 142.82 -0.44, 263.55 0 M9.54 0 C73.66 -1.93, 137.61 -1.58, 263.55 0 M263.55 0 C271.04 0.56, 273.6 2.43, 273.09 9.54 M263.55 0 C271.41 1.53, 273.06 4.19, 273.09 9.54 M273.09 9.54 C274.13 15.75, 272.25 22.11, 273.09 28.62 M273.09 9.54 C273.34 15.75, 272.1 20.89, 273.09 28.62 M273.09 28.62 C271.66 35.88, 271.6 36.33, 263.55 38.17 M273.09 28.62 C275.14 33.2, 268.53 36.54, 263.55 38.17 M263.55 38.17 C177.92 35.49, 91.03 37.83, 9.54 38.17 M263.55 38.17 C186.31 36.85, 109.84 37.7, 9.54 38.17 M9.54 38.17 C2.51 39.76, 0.06 33.28, 0 28.62 M9.54 38.17 C3.73 37.28, -1.65 36.66, 0 28.62 M0 28.62 C-0.58 21.99, -0.63 17.39, 0 9.54 M0 28.62 C-0.37 23.69, 0.7 17.46, 0 9.54 M0 9.54 C-1.09 1.57, 2.69 -0.76, 9.54 0 M0 9.54 C1.37 2.74, 1.4 -1.94, 9.54 0" stroke="#1e1e1e" stroke-width="2" fill="none"></path></g><g transform="translate(527.8552683667062 16.58331298828125) rotate(0 88.7999038696289 12.5)"><text x="88.7999038696289" y="17.52" font-family="Virgil, Segoe UI Emoji" font-size="20px" fill="#1e1e1e" text-anchor="middle" style="white-space: pre;" direction="ltr" dominant-baseline="alphabetic">Output probability</text></g><g stroke-linecap="round" transform="translate(44.408661428631376 242.76656143202644) rotate(0 136.5433349609375 39.1772766314042)"><path d="M19.59 0 C104.87 1.88, 188.03 2.13, 253.5 0 C269.89 3.09, 273.52 5.7, 273.09 19.59 C273.72 37.47, 270.77 51.54, 273.09 58.77 C271.82 69.51, 268.23 79.48, 253.5 78.35 C201.75 72.51, 147.91 72.73, 19.59 78.35 C6.41 81.63, 1.94 72.67, 0 58.77 C-1.67 46.26, -0.39 36.91, 0 19.59 C0.2 3.79, 9.73 -3.03, 19.59 0" stroke="none" stroke-width="0" fill="#b2f2bb"></path><path d="M19.59 0 C93.63 -0.62, 168.73 -0.59, 253.5 0 M19.59 0 C106.16 0.86, 194.7 0.64, 253.5 0 M253.5 0 C264.56 0.97, 273.75 8.24, 273.09 19.59 M253.5 0 C268.59 0.99, 272.52 7.45, 273.09 19.59 M273.09 19.59 C274.91 29.2, 272.65 40.1, 273.09 58.77 M273.09 19.59 C273.64 33.31, 272.27 46.53, 273.09 58.77 M273.09 58.77 C272.82 71.98, 267.34 76.6, 253.5 78.35 M273.09 58.77 C273.03 69.82, 267.86 76.76, 253.5 78.35 M253.5 78.35 C183.94 80.08, 114.04 80.93, 19.59 78.35 M253.5 78.35 C201.01 77.57, 146.58 77.36, 19.59 78.35 M19.59 78.35 C7.01 80.19, -1.87 70.28, 0 58.77 M19.59 78.35 C6.67 79.74, 1.86 70.7, 0 58.77 M0 58.77 C-1.05 41.83, -1.46 27.78, 0 19.59 M0 58.77 C-0.05 46.27, 0.09 33.2, 0 19.59 M0 19.59 C1.75 7.16, 7.58 1.88, 19.59 0 M0 19.59 C-2.29 8.4, 7.15 2.1, 19.59 0" stroke="#1e1e1e" stroke-width="2" fill="none"></path></g><g transform="translate(140.5320287382017 269.44383806343063) rotate(0 40.41996765136719 12.5)"><text x="40.41996765136719" y="17.52" font-family="Virgil, Segoe UI Emoji" font-size="20px" fill="#1e1e1e" text-anchor="middle" style="white-space: pre;" direction="ltr" dominant-baseline="alphabetic">Expert 1</text></g><g stroke-linecap="round"><g transform="translate(182.751811171619 362.83672550477064) rotate(0 -0.6547901806596883 -21.277635593244952)"><path d="M-0.16 -0.34 C-0.34 -7.43, -0.75 -35.38, -1.02 -42.38 M0.76 0.68 C0.52 -6.6, -1.05 -35.93, -1.3 -43.26" stroke="#1e1e1e" stroke-width="2" fill="none"></path></g><g transform="translate(182.751811171619 362.83672550477064) rotate(0 -0.6547901806596883 -21.277635593244952)"><path d="M6.87 -23.6 C3.64 -29.3, 1.98 -36.92, -1.3 -43.26 M6.87 -23.6 C3.81 -30.09, 1.02 -36.82, -1.3 -43.26" stroke="#1e1e1e" stroke-width="2" fill="none"></path></g><g transform="translate(182.751811171619 362.83672550477064) rotate(0 -0.6547901806596883 -21.277635593244952)"><path d="M-7.68 -22.95 C-6.31 -28.83, -3.37 -36.66, -1.3 -43.26 M-7.68 -22.95 C-5.82 -29.73, -3.7 -36.67, -1.3 -43.26" stroke="#1e1e1e" stroke-width="2" fill="none"></path></g></g><mask></mask><g stroke-linecap="round" transform="translate(435.3726013992084 137.54797431308822) rotate(0 183.05531225722325 223.2277069091797)"><path d="M32 0 C122.73 -1.41, 212.73 -1.41, 334.11 0 M32 0 C112.57 -1.22, 193.45 -1.31, 334.11 0 M334.11 0 C353.71 -0.53, 365.2 9.93, 366.11 32 M334.11 0 C353.75 1.2, 366.53 12.23, 366.11 32 M366.11 32 C365.34 148.12, 364.82 266.11, 366.11 414.46 M366.11 32 C368.42 174.37, 367.49 315.97, 366.11 414.46 M366.11 414.46 C365.72 437.59, 355.13 448.11, 334.11 446.46 M366.11 414.46 C365.25 434.71, 356.97 447.72, 334.11 446.46 M334.11 446.46 C225.63 446.67, 118.77 447.34, 32 446.46 M334.11 446.46 C215.35 447.84, 98.05 447.49, 32 446.46 M32 446.46 C9.86 446.04, 0.47 434.49, 0 414.46 M32 446.46 C12.02 445.46, 1.23 436.88, 0 414.46 M0 414.46 C-1.91 288.65, -1.66 161.54, 0 32 M0 414.46 C-1.45 313.99, -1.59 212.76, 0 32 M0 32 C-0.89 8.79, 10.54 -0.89, 32 0 M0 32 C-0.47 11.63, 10.96 -1.28, 32 0" stroke="#1e1e1e" stroke-width="2" fill="none"></path></g><g stroke-linecap="round" transform="translate(468.61316976131116 496.22697208256847) rotate(0 139.54690551757812 35.01055908203125)"><path d="M17.51 0 C87.52 4.74, 162.15 1.63, 261.59 0 C271.48 0.6, 279.22 8.54, 279.09 17.51 C281.69 27.63, 279.82 35.61, 279.09 52.52 C278.18 60.9, 270.47 69.8, 261.59 70.02 C189.7 69.18, 119.24 67.23, 17.51 70.02 C3.72 72.27, -1.01 62.24, 0 52.52 C3.45 45.97, 0.39 34.81, 0 17.51 C-0.25 3.82, 3.53 1.22, 17.51 0" stroke="none" stroke-width="0" fill="#ffec99"></path><path d="M17.51 0 C97.96 0.19, 177.15 2.43, 261.59 0 M17.51 0 C105.22 -0.32, 193.48 -0.61, 261.59 0 M261.59 0 C272.34 -0.73, 277.62 6.88, 279.09 17.51 M261.59 0 C273.68 1.56, 279.22 3.86, 279.09 17.51 M279.09 17.51 C280.56 26.01, 280.87 34.63, 279.09 52.52 M279.09 17.51 C278.75 27.87, 279.21 40.15, 279.09 52.52 M279.09 52.52 C278.78 65.84, 272.51 69.08, 261.59 70.02 M279.09 52.52 C280.62 65.45, 274.56 69.86, 261.59 70.02 M261.59 70.02 C193.35 72.4, 126.2 72.06, 17.51 70.02 M261.59 70.02 C176.15 70.63, 89.73 70.56, 17.51 70.02 M17.51 70.02 C6.31 68.72, 1.18 63.32, 0 52.52 M17.51 70.02 C7.06 71.11, 0.7 65.08, 0 52.52 M0 52.52 C-1 44.5, -0.43 38.01, 0 17.51 M0 52.52 C-0.41 42.24, -0.35 31.2, 0 17.51 M0 17.51 C-0.13 4.95, 5.42 0.84, 17.51 0 M0 17.51 C0.29 4.55, 7.05 1.03, 17.51 0" stroke="#1e1e1e" stroke-width="2" fill="none"></path></g><g transform="translate(505.8501692730299 518.7375311645997) rotate(0 102.30990600585938 12.5)"><text x="102.30990600585938" y="17.52" font-family="Virgil, Segoe UI Emoji" font-size="20px" fill="#1e1e1e" text-anchor="middle" style="white-space: pre;" direction="ltr" dominant-baseline="alphabetic">Multi-Head Attention</text></g><g stroke-linecap="round" transform="translate(472.31080159724866 444.30949161381847) rotate(0 136.5433349609375 19.08331298828125)"><path d="M9.54 0 C107.76 0.94, 208.97 2.65, 263.55 0 C269.75 1.59, 274 5.5, 273.09 9.54 C272.26 12, 270.47 20.53, 273.09 28.62 C272.65 32.96, 267.65 36.21, 263.55 38.17 C173.39 39.34, 85.83 35.94, 9.54 38.17 C2.37 34.58, -1.53 37.81, 0 28.62 C-0.22 19.29, -2.18 14.99, 0 9.54 C2.35 5.13, 6.23 -2.07, 9.54 0" stroke="none" stroke-width="0" fill="#ffec99"></path><path d="M9.54 0 C73.01 -2.63, 134.79 -2.91, 263.55 0 M9.54 0 C87.44 0.25, 165.47 0.97, 263.55 0 M263.55 0 C270.27 1.36, 273.2 1.47, 273.09 9.54 M263.55 0 C268.12 2.27, 271.69 4.46, 273.09 9.54 M273.09 9.54 C273.42 17.67, 273.96 21.1, 273.09 28.62 M273.09 9.54 C272.9 15.1, 272.69 18.63, 273.09 28.62 M273.09 28.62 C274.41 36.08, 271.04 38.03, 263.55 38.17 M273.09 28.62 C272.64 33.85, 270.92 38.45, 263.55 38.17 M263.55 38.17 C165.34 38.31, 66.05 40.24, 9.54 38.17 M263.55 38.17 C190.79 37.21, 118.12 37.38, 9.54 38.17 M9.54 38.17 C4.25 39.12, 0.61 35.76, 0 28.62 M9.54 38.17 C1.42 36.2, 1.16 33.49, 0 28.62 M0 28.62 C-0.1 22.58, 1.21 16.59, 0 9.54 M0 28.62 C0.02 22.65, -0.11 17.93, 0 9.54 M0 9.54 C0.25 2.07, 4.24 0.9, 9.54 0 M0 9.54 C-0.11 4.4, 1.92 -1.6, 9.54 0" stroke="#1e1e1e" stroke-width="2" fill="none"></path></g><g transform="translate(529.3741942364088 450.8928046020997) rotate(0 79.47994232177734 12.5)"><text x="79.47994232177734" y="17.52" font-family="Virgil, Segoe UI Emoji" font-size="20px" fill="#1e1e1e" text-anchor="middle" style="white-space: pre;" direction="ltr" dominant-baseline="alphabetic">Add + Normalize</text></g><g stroke-linecap="round"><g transform="translate(608.7570906597487 497.05814884038097) rotate(0 -0.061370849609375 -7.716217041015625)"><path d="M-0.42 0.04 C-0.47 -2.57, -0.61 -12.96, -0.6 -15.58 M0.36 -0.41 C0.51 -2.95, 0.59 -12.5, 0.39 -14.95" stroke="#e03131" stroke-width="2" fill="none"></path></g><g transform="translate(608.7570906597487 497.05814884038097) rotate(0 -0.061370849609375 -7.716217041015625)"><path d="M3.24 -7.78 C2.58 -9.86, 1.76 -11.42, 0.39 -14.95 M3.24 -7.78 C2.55 -9.53, 1.78 -11.72, 0.39 -14.95" stroke="#e03131" stroke-width="2" fill="none"></path></g><g transform="translate(608.7570906597487 497.05814884038097) rotate(0 -0.061370849609375 -7.716217041015625)"><path d="M-2.03 -7.63 C-1.43 -9.72, -0.98 -11.32, 0.39 -14.95 M-2.03 -7.63 C-1.33 -9.43, -0.72 -11.66, 0.39 -14.95" stroke="#e03131" stroke-width="2" fill="none"></path></g></g><mask></mask><g stroke-linecap="round"><g transform="translate(607.4712923891022 402.18278262944347) rotate(0 0.180694580078125 20.76446533203125)"><path d="M-0.48 -0.15 C-0.39 6.74, 0.04 34.33, 0.11 41.33 M0.28 -0.7 C0.31 6.26, -0.58 34.99, -0.45 41.92" stroke="#e03131" stroke-width="2" fill="none"></path></g></g><mask></mask><g stroke-linecap="round" transform="translate(512.2539168316237 367.63493106694347) rotate(0 89.293212890625 17.5)"><path d="M8.75 0 C63.95 -1.42, 117.01 -2.78, 169.84 0 C172.38 -2.79, 178.37 2.48, 178.59 8.75 C179.91 11.1, 177.84 15.43, 178.59 26.25 C180.84 31.07, 173.73 34.19, 169.84 35 C140.73 37.04, 107.01 37.03, 8.75 35 C0.9 32.69, 1.22 34.43, 0 26.25 C0.78 18.95, -1.54 15.09, 0 8.75 C-0.09 5.08, 4.42 0.93, 8.75 0" stroke="none" stroke-width="0" fill="#a5d8ff"></path><path d="M8.75 0 C42.35 -0.74, 78.46 1.1, 169.84 0 M8.75 0 C67.22 2.37, 126.63 1.94, 169.84 0 M169.84 0 C176.39 1.43, 180.14 3.13, 178.59 8.75 M169.84 0 C177.75 0.89, 177.08 1.76, 178.59 8.75 M178.59 8.75 C180.19 13, 177.92 19.72, 178.59 26.25 M178.59 8.75 C178.51 14.53, 179.07 21.28, 178.59 26.25 M178.59 26.25 C180.38 33.91, 177.06 36.03, 169.84 35 M178.59 26.25 C176.75 32.89, 176.58 34.71, 169.84 35 M169.84 35 C126.7 36.55, 85.29 36.45, 8.75 35 M169.84 35 C113.1 34.77, 58.4 34.98, 8.75 35 M8.75 35 C2.73 34.27, 1.14 31.9, 0 26.25 M8.75 35 C2.31 36.38, -1.14 31.87, 0 26.25 M0 26.25 C-0.61 21.42, 0.9 17.53, 0 8.75 M0 26.25 C-0.13 22.44, -0.57 17.09, 0 8.75 M0 8.75 C1.85 3.23, 2.67 -0.99, 8.75 0 M0 8.75 C0.39 3, 4.65 -0.1, 8.75 0" stroke="#1e1e1e" stroke-width="2" fill="none"></path></g><g transform="translate(568.1271620708815 372.63493106694347) rotate(0 33.41996765136719 12.5)"><text x="33.41996765136719" y="17.52" font-family="Virgil, Segoe UI Emoji" font-size="20px" fill="#1e1e1e" text-anchor="middle" style="white-space: pre;" direction="ltr" dominant-baseline="alphabetic">Router</text></g><g stroke-linecap="round" transform="translate(464.9291487652174 165.46354434819347) rotate(0 136.5433349609375 19.08331298828125)"><path d="M9.54 0 C86.26 -1.32, 168.14 0.58, 263.55 0 C267.88 -2.25, 271.13 4.92, 273.09 9.54 C275.18 13.14, 271.17 17.89, 273.09 28.62 C269.5 33.45, 272.73 41.33, 263.55 38.17 C187.4 36.04, 115.51 39.81, 9.54 38.17 C5.13 41.22, -2.07 36.18, 0 28.62 C0.05 25.64, 1.57 19.4, 0 9.54 C0.76 1.78, 2.31 1.55, 9.54 0" stroke="none" stroke-width="0" fill="#ffec99"></path><path d="M9.54 0 C68.09 -0.29, 123.06 -1.63, 263.55 0 M9.54 0 C111.14 -0.57, 212.8 -1.06, 263.55 0 M263.55 0 C271.71 0.77, 271.77 2.18, 273.09 9.54 M263.55 0 C269.45 2.07, 272.73 5.08, 273.09 9.54 M273.09 9.54 C274.04 15.64, 272.87 19.19, 273.09 28.62 M273.09 9.54 C274.03 15.19, 273.83 19.6, 273.09 28.62 M273.09 28.62 C271.49 35.69, 270.7 37.91, 263.55 38.17 M273.09 28.62 C272.16 34.51, 270.45 36.67, 263.55 38.17 M263.55 38.17 C173.19 39.76, 81.92 38.02, 9.54 38.17 M263.55 38.17 C208.99 36.53, 155.06 36.76, 9.54 38.17 M9.54 38.17 C2.66 39.37, -1 34.8, 0 28.62 M9.54 38.17 C2.15 36, -0.15 33.96, 0 28.62 M0 28.62 C-1.14 24.3, 0.78 17.87, 0 9.54 M0 28.62 C0.99 22.04, -0.01 14.68, 0 9.54 M0 9.54 C0.34 3.25, 4.69 -0.08, 9.54 0 M0 9.54 C1.01 3.77, 4.66 -0.15, 9.54 0" stroke="#1e1e1e" stroke-width="2" fill="none"></path></g><g transform="translate(521.9925414043776 172.04685733647472) rotate(0 79.47994232177734 12.5)"><text x="79.47994232177734" y="17.52" font-family="Virgil, Segoe UI Emoji" font-size="20px" fill="#1e1e1e" text-anchor="middle" style="white-space: pre;" direction="ltr" dominant-baseline="alphabetic">Add + Normalize</text></g><g stroke-linecap="round"><g transform="translate(601.8592969577708 244.26749225880775) rotate(0 -0.7800155025266804 -21.33732246604933)"><path d="M-0.43 0.54 C-0.75 -6.44, -1.74 -35.23, -1.89 -42.37 M0.36 0.35 C0.21 -6.75, -0.51 -35.93, -0.83 -43.18" stroke="#e03131" stroke-width="2" fill="none"></path></g><g transform="translate(601.8592969577708 244.26749225880775) rotate(0 -0.7800155025266804 -21.33732246604933)"><path d="M7.13 -23.37 C5.77 -30.06, 2.91 -35.14, -0.83 -43.18 M7.13 -23.37 C4.55 -30.53, 0.81 -38.34, -0.83 -43.18" stroke="#e03131" stroke-width="2" fill="none"></path></g><g transform="translate(601.8592969577708 244.26749225880775) rotate(0 -0.7800155025266804 -21.33732246604933)"><path d="M-7.47 -22.88 C-4.36 -29.66, -2.77 -34.9, -0.83 -43.18 M-7.47 -22.88 C-4.63 -30.23, -2.94 -38.22, -0.83 -43.18" stroke="#e03131" stroke-width="2" fill="none"></path></g></g><mask></mask><g stroke-linecap="round"><g transform="translate(607.1207991073502 420.80140559744257) rotate(0 90.79243595186813 -0.501122052276969)"><path d="M-0.73 0.67 C29.76 0.45, 151.47 0.11, 182.01 -0.14 M1.09 -0.03 C31.54 -0.07, 151.1 -1.9, 181.29 -1.81" stroke="#e03131" stroke-width="2" fill="none"></path></g></g><mask></mask><g stroke-linecap="round"><g transform="translate(784.532725661842 422.9609198364747) rotate(0 0.13519287109375 -119.55966186523438)"><path d="M0.43 0.86 C0.75 -39.08, 1.05 -199.07, 1.2 -238.99 M-0.8 0.27 C-0.49 -39.52, 0.42 -197.22, 0.74 -237.39" stroke="#e03131" stroke-width="2" fill="none"></path></g></g><mask></mask><g stroke-linecap="round"><g transform="translate(785.5802593671629 181.8106768336641) rotate(0 -22.36202380683187 -0.6385824303155658)"><path d="M0.43 0.06 C-6.98 -0.19, -36.64 -0.8, -44.23 -1.06 M-0.02 -0.39 C-7.47 -0.83, -37.08 -1.8, -44.4 -1.92" stroke="#e03131" stroke-width="2" fill="none"></path></g><g transform="translate(785.5802593671629 181.8106768336641) rotate(0 -22.36202380683187 -0.6385824303155658)"><path d="M-23.19 -9.02 C-30.18 -5.65, -37.02 -4.83, -44.4 -1.92 M-23.19 -9.02 C-28.57 -6.74, -33.98 -5.61, -44.4 -1.92" stroke="#e03131" stroke-width="2" fill="none"></path></g><g transform="translate(785.5802593671629 181.8106768336641) rotate(0 -22.36202380683187 -0.6385824303155658)"><path d="M-23.59 6.28 C-30.5 4.51, -37.21 0.2, -44.4 -1.92 M-23.59 6.28 C-28.86 4.74, -34.17 2.04, -44.4 -1.92" stroke="#e03131" stroke-width="2" fill="none"></path></g></g><mask></mask><g stroke-linecap="round" transform="translate(469.7812628278398 246.01537919825017) rotate(0 136.5433349609375 39.1772766314042)"><path d="M19.59 0 C84.82 -3.86, 151.07 -5.25, 253.5 0 C265.02 2.83, 276.25 6.29, 273.09 19.59 C270.73 34.45, 275.39 48.81, 273.09 58.77 C276.14 69.76, 267.75 77.09, 253.5 78.35 C194.64 79.53, 132.91 78.91, 19.59 78.35 C5.13 77.48, 1.55 69.3, 0 58.77 C-2.96 51.79, -0.16 38.01, 0 19.59 C-2.98 9.17, 5.46 1.43, 19.59 0" stroke="none" stroke-width="0" fill="#b2f2bb"></path><path d="M19.59 0 C108.59 -2.89, 195.44 -2.11, 253.5 0 M19.59 0 C110.49 -2.02, 202.59 -1.17, 253.5 0 M253.5 0 C267.69 -0.14, 272.7 5.54, 273.09 19.59 M253.5 0 C267.57 0.29, 275.15 8.63, 273.09 19.59 M273.09 19.59 C273.99 34.86, 273.03 47.74, 273.09 58.77 M273.09 19.59 C273.77 30.09, 273.71 41.93, 273.09 58.77 M273.09 58.77 C273.7 72.6, 265.03 76.64, 253.5 78.35 M273.09 58.77 C274.25 70.33, 266.34 77.52, 253.5 78.35 M253.5 78.35 C171.03 77, 86.37 77.09, 19.59 78.35 M253.5 78.35 C205.14 77.83, 157.24 77.01, 19.59 78.35 M19.59 78.35 C7.59 79.25, -0.09 72.89, 0 58.77 M19.59 78.35 C5.27 76.75, 2.12 72.19, 0 58.77 M0 58.77 C0.27 49, 0.11 37.1, 0 19.59 M0 58.77 C-0.13 45.29, -0.51 32.35, 0 19.59 M0 19.59 C-1.55 6.41, 6.29 -1.12, 19.59 0 M0 19.59 C-1.44 5.28, 7.64 -1.4, 19.59 0" stroke="#1e1e1e" stroke-width="2" fill="none"></path></g><g transform="translate(561.4946341046953 272.69265582965437) rotate(0 44.82996368408203 12.5)"><text x="44.82996368408203" y="17.52" font-family="Virgil, Segoe UI Emoji" font-size="20px" fill="#1e1e1e" text-anchor="middle" style="white-space: pre;" direction="ltr" dominant-baseline="alphabetic">Expert 2</text></g><g stroke-linecap="round"><g transform="translate(608.1244125708274 366.0855432709944) rotate(0 -0.6547901806596883 -21.277635593244952)"><path d="M-0.11 0.49 C-0.28 -6.48, -1.16 -34.88, -1.4 -42.1 M-0.83 0.27 C-1.05 -6.82, -1.68 -35.73, -1.87 -42.83" stroke="#e03131" stroke-width="2" fill="none"></path></g><g transform="translate(608.1244125708274 366.0855432709944) rotate(0 -0.6547901806596883 -21.277635593244952)"><path d="M5.89 -23.01 C5.02 -27.82, 3.13 -32.68, -1.87 -42.83 M5.89 -23.01 C4.14 -28.04, 1.8 -33.27, -1.87 -42.83" stroke="#e03131" stroke-width="2" fill="none"></path></g><g transform="translate(608.1244125708274 366.0855432709944) rotate(0 -0.6547901806596883 -21.277635593244952)"><path d="M-8.67 -22.66 C-6.12 -27.54, -4.61 -32.48, -1.87 -42.83 M-8.67 -22.66 C-6.73 -27.82, -5.39 -33.14, -1.87 -42.83" stroke="#e03131" stroke-width="2" fill="none"></path></g></g><mask></mask><g stroke-linecap="round" transform="translate(844.5616493040052 138.93579063967672) rotate(0 183.05531225722325 223.22770690917972)"><path d="M32 0 C141.85 -1.62, 253.45 -1.88, 334.11 0 M32 0 C127.12 -0.16, 221.55 -0.86, 334.11 0 M334.11 0 C356.35 1.06, 364.21 11.76, 366.11 32 M334.11 0 C353.56 -1.16, 364.7 11.19, 366.11 32 M366.11 32 C368.19 155.69, 368.71 281.05, 366.11 414.46 M366.11 32 C366.42 108.8, 367.31 184.78, 366.11 414.46 M366.11 414.46 C367.24 436.93, 356.25 446.52, 334.11 446.46 M366.11 414.46 C364.55 435.42, 357.44 448.68, 334.11 446.46 M334.11 446.46 C231.99 448.22, 131.1 447.97, 32 446.46 M334.11 446.46 C249.78 446.92, 165.86 447.22, 32 446.46 M32 446.46 C8.98 447.09, -1.15 436.82, 0 414.46 M32 446.46 C9.87 445.36, -0.79 433.88, 0 414.46 M0 414.46 C1.63 271.5, 2.63 125.78, 0 32 M0 414.46 C-0.77 323.44, -0.41 231.54, 0 32 M0 32 C-1.87 12.51, 11.48 -0.34, 32 0 M0 32 C-0.76 9.05, 11.09 1.77, 32 0" stroke="#1e1e1e" stroke-width="2" fill="none"></path></g><g stroke-linecap="round" transform="translate(877.8022176661079 497.6147884091569) rotate(0 139.54690551757812 35.01055908203125)"><path d="M17.51 0 C86.33 3.38, 153.76 5.96, 261.59 0 C273.52 -2.46, 279.86 5.76, 279.09 17.51 C275.16 24.98, 276.87 36.36, 279.09 52.52 C281.93 61.25, 273.19 68.37, 261.59 70.02 C179.13 65.74, 93.55 65.93, 17.51 70.02 C9.11 71.02, -0.96 67.3, 0 52.52 C0.07 40.76, -1.58 26.25, 0 17.51 C-2.01 4.24, 6.77 1.59, 17.51 0" stroke="none" stroke-width="0" fill="#ffec99"></path><path d="M17.51 0 C100.85 -0.09, 181.53 1.93, 261.59 0 M17.51 0 C93.45 -0.99, 170.41 0.11, 261.59 0 M261.59 0 C271.36 1.09, 277.46 4.83, 279.09 17.51 M261.59 0 C271.85 0.52, 279.65 8, 279.09 17.51 M279.09 17.51 C279.82 28.49, 277.08 36.24, 279.09 52.52 M279.09 17.51 C279.61 30.6, 279.4 45.57, 279.09 52.52 M279.09 52.52 C279.9 64.25, 271.9 69.7, 261.59 70.02 M279.09 52.52 C281.09 66.42, 274.11 69.98, 261.59 70.02 M261.59 70.02 C184.6 73.15, 105.78 72.87, 17.51 70.02 M261.59 70.02 C180.92 69.74, 100.7 69.84, 17.51 70.02 M17.51 70.02 C4.69 71.05, -0.69 63.23, 0 52.52 M17.51 70.02 C5.04 68.11, 1.75 62.22, 0 52.52 M0 52.52 C1.23 43.57, -1.12 38.48, 0 17.51 M0 52.52 C0.44 39.68, -0.85 26.83, 0 17.51 M0 17.51 C0.81 5.5, 5.18 -1.4, 17.51 0 M0 17.51 C0.43 7.61, 7.08 -0.46, 17.51 0" stroke="#1e1e1e" stroke-width="2" fill="none"></path></g><g transform="translate(915.0392171778267 520.1253474911882) rotate(0 102.30990600585938 12.5)"><text x="102.30990600585938" y="17.52" font-family="Virgil, Segoe UI Emoji" font-size="20px" fill="#1e1e1e" text-anchor="middle" style="white-space: pre;" direction="ltr" dominant-baseline="alphabetic">Multi-Head Attention</text></g><g stroke-linecap="round" transform="translate(881.4998495020454 445.697307940407) rotate(0 136.5433349609375 19.08331298828128)"><path d="M9.54 0 C84.12 -4.93, 158.91 -3, 263.55 0 C267.58 -2.55, 275.82 -0.3, 273.09 9.54 C275.62 12.06, 272.85 18.6, 273.09 28.62 C274.74 38.56, 266.74 40.56, 263.55 38.17 C199.28 37.85, 128.93 39.57, 9.54 38.17 C6 40.77, -1.15 35.51, 0 28.62 C-1.82 20.59, 1 17.11, 0 9.54 C-3.51 1.73, 2.81 0.06, 9.54 0" stroke="none" stroke-width="0" fill="#ffec99"></path><path d="M9.54 0 C66.91 -0.53, 124.14 -1.61, 263.55 0 M9.54 0 C64.67 -0.65, 120.67 -1.5, 263.55 0 M263.55 0 C268.68 0.46, 273.57 5.06, 273.09 9.54 M263.55 0 C268.95 -0.14, 272.58 4.04, 273.09 9.54 M273.09 9.54 C274.67 15.73, 273.58 26.18, 273.09 28.62 M273.09 9.54 C273.58 14.06, 272.55 18.36, 273.09 28.62 M273.09 28.62 C274.82 36.92, 270.65 38.13, 263.55 38.17 M273.09 28.62 C273.51 34.52, 272.05 39.18, 263.55 38.17 M263.55 38.17 C168.52 38.35, 72.23 38.26, 9.54 38.17 M263.55 38.17 C181.78 39.24, 100.67 38.44, 9.54 38.17 M9.54 38.17 C2.49 36.51, 1.52 33.28, 0 28.62 M9.54 38.17 C1.07 37.55, 1.73 36.29, 0 28.62 M0 28.62 C1.64 24.03, 1.98 21.02, 0 9.54 M0 28.62 C0.56 21.84, -0.14 14.71, 0 9.54 M0 9.54 C0.37 4.72, 4.26 -0.4, 9.54 0 M0 9.54 C-0.34 4.99, 0.9 -0.59, 9.54 0" stroke="#1e1e1e" stroke-width="2" fill="none"></path></g><g transform="translate(938.5632421412056 452.2806209286883) rotate(0 79.47994232177734 12.5)"><text x="79.47994232177734" y="17.52" font-family="Virgil, Segoe UI Emoji" font-size="20px" fill="#1e1e1e" text-anchor="middle" style="white-space: pre;" direction="ltr" dominant-baseline="alphabetic">Add + Normalize</text></g><g stroke-linecap="round"><g transform="translate(1017.9461385645454 498.4459651669694) rotate(0 -0.061370849609375 -7.716217041015625)"><path d="M-0.22 -0.44 C-0.22 -2.98, 0.2 -12.69, 0.13 -15.14 M0.67 0.52 C0.61 -2.18, -0.13 -13.2, -0.18 -15.96" stroke="#1e1e1e" stroke-width="2" fill="none"></path></g><g transform="translate(1017.9461385645454 498.4459651669694) rotate(0 -0.061370849609375 -7.716217041015625)"><path d="M2.78 -8.83 C1.5 -11, 1.04 -13.87, -0.18 -15.96 M2.78 -8.83 C1.64 -11.32, 0.76 -13.71, -0.18 -15.96" stroke="#1e1e1e" stroke-width="2" fill="none"></path></g><g transform="translate(1017.9461385645454 498.4459651669694) rotate(0 -0.061370849609375 -7.716217041015625)"><path d="M-2.49 -8.6 C-2.05 -10.83, -0.78 -13.78, -0.18 -15.96 M-2.49 -8.6 C-1.76 -11.16, -0.77 -13.63, -0.18 -15.96" stroke="#1e1e1e" stroke-width="2" fill="none"></path></g></g><mask></mask><g stroke-linecap="round"><g transform="translate(1016.7449666895454 403.570598956032) rotate(0 0.180694580078125 20.76446533203125)"><path d="M0.25 0.29 C0.26 7.34, -0.1 35, -0.16 41.83 M-0.29 -0.03 C-0.1 6.89, 0.59 34.06, 0.8 41.02" stroke="#1e1e1e" stroke-width="2" fill="none"></path></g></g><mask></mask><g stroke-linecap="round" transform="translate(921.4429647364204 369.022747393532) rotate(0 89.293212890625 17.5)"><path d="M8.75 0 C44.91 1.02, 84.96 5.64, 169.84 0 C172.74 -0.07, 176.93 4.57, 178.59 8.75 C177.16 16.61, 177.36 25.59, 178.59 26.25 C179.58 31.13, 178.78 37.82, 169.84 35 C111.34 34.3, 50.08 33.41, 8.75 35 C1.33 35.93, 1.59 28.58, 0 26.25 C-1.38 20.25, 1.43 15.91, 0 8.75 C0.16 2.96, 3.3 -1.26, 8.75 0" stroke="none" stroke-width="0" fill="#a5d8ff"></path><path d="M8.75 0 C65.43 -0.11, 118.91 0.31, 169.84 0 M8.75 0 C60.33 -1.58, 112.52 -1.14, 169.84 0 M169.84 0 C177.62 -2, 179.24 4.77, 178.59 8.75 M169.84 0 C173.99 0.82, 180.37 1.42, 178.59 8.75 M178.59 8.75 C178.74 13.8, 178.41 22.75, 178.59 26.25 M178.59 8.75 C178.81 15.52, 179.47 23.03, 178.59 26.25 M178.59 26.25 C180.1 31.64, 176.85 35.56, 169.84 35 M178.59 26.25 C177.13 31.58, 174.08 35.46, 169.84 35 M169.84 35 C136.13 33.38, 99.41 33.38, 8.75 35 M169.84 35 C133.96 33.35, 100.67 34.19, 8.75 35 M8.75 35 C1.26 33.79, 0.55 33.68, 0 26.25 M8.75 35 C2.37 37.25, 0.83 33.16, 0 26.25 M0 26.25 C-0.45 22.06, -1.39 19.34, 0 8.75 M0 26.25 C-0.22 20.34, -0.96 12.83, 0 8.75 M0 8.75 C-0.14 0.95, 4.5 0.14, 8.75 0 M0 8.75 C-1.57 3.41, 2.87 -1.48, 8.75 0" stroke="#1e1e1e" stroke-width="2" fill="none"></path></g><g transform="translate(977.3162099756782 374.022747393532) rotate(0 33.41996765136719 12.5)"><text x="33.41996765136719" y="17.52" font-family="Virgil, Segoe UI Emoji" font-size="20px" fill="#1e1e1e" text-anchor="middle" style="white-space: pre;" direction="ltr" dominant-baseline="alphabetic">Router</text></g><g stroke-linecap="round" transform="translate(874.1181966700142 166.85136067478197) rotate(0 136.5433349609375 19.08331298828125)"><path d="M9.54 0 C70.8 -2.97, 135.47 -1.58, 263.55 0 C273.48 -3.17, 275.48 1.87, 273.09 9.54 C273.93 14.89, 275.95 24.74, 273.09 28.62 C275.69 33.84, 270.43 39.65, 263.55 38.17 C193.96 36.85, 128.25 33.25, 9.54 38.17 C1.73 37.8, 0.06 33.37, 0 28.62 C0 23.82, 0.22 17.74, 0 9.54 C-0.35 0.56, 1.3 0.79, 9.54 0" stroke="none" stroke-width="0" fill="#ffec99"></path><path d="M9.54 0 C65.31 1.65, 121.87 0.58, 263.55 0 M9.54 0 C85.02 -1.58, 159.19 -0.02, 263.55 0 M263.55 0 C268.45 0.71, 274.63 1.88, 273.09 9.54 M263.55 0 C271.21 1.31, 274.02 3.25, 273.09 9.54 M273.09 9.54 C274.91 14.68, 273.02 18.75, 273.09 28.62 M273.09 9.54 C273.99 14.67, 273.83 20.49, 273.09 28.62 M273.09 28.62 C271.82 34.55, 268.52 38.57, 263.55 38.17 M273.09 28.62 C271.15 35.72, 268.59 39.35, 263.55 38.17 M263.55 38.17 C194.77 38.69, 127.31 35.97, 9.54 38.17 M263.55 38.17 C193.48 38.85, 124.98 39.99, 9.54 38.17 M9.54 38.17 C2.71 40.12, 0.72 35.92, 0 28.62 M9.54 38.17 C1.04 40.29, 0.93 34.6, 0 28.62 M0 28.62 C1.6 24.56, -0.25 18.14, 0 9.54 M0 28.62 C0.12 20.46, 0.95 14.24, 0 9.54 M0 9.54 C-1.37 3.61, 3.14 -1.29, 9.54 0 M0 9.54 C-1.63 4.92, 0.96 -0.49, 9.54 0" stroke="#1e1e1e" stroke-width="2" fill="none"></path></g><g transform="translate(931.1815893091743 173.43467366306322) rotate(0 79.47994232177734 12.5)"><text x="79.47994232177734" y="17.52" font-family="Virgil, Segoe UI Emoji" font-size="20px" fill="#1e1e1e" text-anchor="middle" style="white-space: pre;" direction="ltr" dominant-baseline="alphabetic">Add + Normalize</text></g><g stroke-linecap="round"><g transform="translate(1011.0483448625678 245.65530858539626) rotate(0 -0.7800155025266804 -21.33732246604933)"><path d="M-0.23 -0.03 C-0.53 -7.2, -1.55 -35.27, -1.68 -42.47 M0.65 -0.53 C0.26 -7.62, -1.88 -36.26, -2.17 -43.33" stroke="#1e1e1e" stroke-width="2" fill="none"></path></g><g transform="translate(1011.0483448625678 245.65530858539626) rotate(0 -0.7800155025266804 -21.33732246604933)"><path d="M6.32 -23.74 C3.42 -30.33, 1.1 -35.48, -2.17 -43.33 M6.32 -23.74 C4.23 -27.44, 3.28 -31.87, -2.17 -43.33" stroke="#1e1e1e" stroke-width="2" fill="none"></path></g><g transform="translate(1011.0483448625678 245.65530858539626) rotate(0 -0.7800155025266804 -21.33732246604933)"><path d="M-8.26 -22.86 C-6.44 -29.7, -4.03 -35.14, -2.17 -43.33 M-8.26 -22.86 C-7.44 -26.81, -5.47 -31.41, -2.17 -43.33" stroke="#1e1e1e" stroke-width="2" fill="none"></path></g></g><mask></mask><g stroke-linecap="round"><g transform="translate(1016.3098470121472 422.1075252255632) rotate(0 90.79243595186813 -0.501122052276969)"><path d="M-0.26 0.45 C30.28 0.1, 152.38 -2.14, 182.75 -2.2 M1.8 -0.36 C32.33 -0.61, 152.48 -1.08, 182.42 -1.29" stroke="#1e1e1e" stroke-width="2" fill="none"></path></g></g><mask></mask><g stroke-linecap="round"><g transform="translate(1193.8064836679187 424.3487361630632) rotate(0 0.13519287109375 -119.55966186523438)"><path d="M1.17 -1.2 C1.32 -40.94, 0.95 -198.42, 0.66 -238.01 M0.32 0.79 C0.37 -39.3, -0.34 -199.28, -0.08 -239.55" stroke="#1e1e1e" stroke-width="2" fill="none"></path></g></g><mask></mask><g stroke-linecap="round"><g transform="translate(1194.7693072719594 183.1984931602526) rotate(0 -22.36202380683187 -0.6385824303155658)"><path d="M0.18 0.51 C-7.43 0.42, -37.71 -0.72, -45.12 -1.08 M-0.39 0.3 C-7.88 0.09, -36.76 -1.69, -44.1 -1.95" stroke="#1e1e1e" stroke-width="2" fill="none"></path></g><g transform="translate(1194.7693072719594 183.1984931602526) rotate(0 -22.36202380683187 -0.6385824303155658)"><path d="M-22.72 -8.55 C-30.32 -6.62, -39.38 -2.49, -44.1 -1.95 M-22.72 -8.55 C-27.53 -6.92, -33.1 -5.46, -44.1 -1.95" stroke="#1e1e1e" stroke-width="2" fill="none"></path></g><g transform="translate(1194.7693072719594 183.1984931602526) rotate(0 -22.36202380683187 -0.6385824303155658)"><path d="M-23.48 6.73 C-30.7 2.59, -39.46 0.64, -44.1 -1.95 M-23.48 6.73 C-28.15 4.77, -33.54 2.63, -44.1 -1.95" stroke="#1e1e1e" stroke-width="2" fill="none"></path></g></g><mask></mask><g stroke-linecap="round" transform="translate(878.9703107326368 247.40319552483868) rotate(0 136.5433349609375 39.177276631404226)"><path d="M19.59 0 C81.88 1.64, 148.16 1.21, 253.5 0 C265.41 0.52, 274.57 5.41, 273.09 19.59 C273.62 33.17, 269.19 42.12, 273.09 58.77 C272.72 71.89, 264.95 76.69, 253.5 78.35 C173 78.84, 91.38 78.22, 19.59 78.35 C3.9 76.48, 0.79 75.08, 0 58.77 C-2.56 47.64, -1.21 39.13, 0 19.59 C-2.5 9.08, 4.15 0.5, 19.59 0" stroke="none" stroke-width="0" fill="#b2f2bb"></path><path d="M19.59 0 C97.95 2.74, 174.02 2.39, 253.5 0 M19.59 0 C102.56 -0.19, 187.41 0.76, 253.5 0 M253.5 0 C267.3 -0.04, 273.45 6.13, 273.09 19.59 M253.5 0 C268.7 1.01, 274.83 6.01, 273.09 19.59 M273.09 19.59 C272.76 32.27, 273.6 46.03, 273.09 58.77 M273.09 19.59 C272.52 32.11, 272.52 44.77, 273.09 58.77 M273.09 58.77 C274.61 70.11, 264.72 77.82, 253.5 78.35 M273.09 58.77 C274.82 73.13, 264.66 76.96, 253.5 78.35 M253.5 78.35 C178.51 78.5, 101.01 76.31, 19.59 78.35 M253.5 78.35 C161.48 77.43, 70.17 78.67, 19.59 78.35 M19.59 78.35 C7.61 77.95, -0.3 73.4, 0 58.77 M19.59 78.35 C4.25 77.76, -0.17 69.56, 0 58.77 M0 58.77 C0.4 43.86, -1.32 27.63, 0 19.59 M0 58.77 C-0.12 44.7, 1.17 28.5, 0 19.59 M0 19.59 C-0.04 5.61, 7.45 1.98, 19.59 0 M0 19.59 C-2.02 8.06, 5.69 0.64, 19.59 0" stroke="#1e1e1e" stroke-width="2" fill="none"></path></g><g transform="translate(970.993679568086 274.0804721562429) rotate(0 44.51996612548828 12.5)"><text x="44.51996612548828" y="17.52" font-family="Virgil, Segoe UI Emoji" font-size="20px" fill="#1e1e1e" text-anchor="middle" style="white-space: pre;" direction="ltr" dominant-baseline="alphabetic">Expert 3</text></g><g stroke-linecap="round"><g transform="translate(1017.3134604756242 367.4733595975829) rotate(0 -0.6547901806596883 -21.277635593244952)"><path d="M0.31 0.31 C0.06 -6.72, -0.75 -35.38, -1.09 -42.54 M-0.19 0 C-0.53 -6.91, -1.34 -34.82, -1.4 -41.83" stroke="#1e1e1e" stroke-width="2" fill="none"></path></g><g transform="translate(1017.3134604756242 367.4733595975829) rotate(0 -0.6547901806596883 -21.277635593244952)"><path d="M6.29 -21.98 C4.02 -29.05, 0.58 -37.62, -1.4 -41.83 M6.29 -21.98 C4.2 -27.59, 1.92 -33.32, -1.4 -41.83" stroke="#1e1e1e" stroke-width="2" fill="none"></path></g><g transform="translate(1017.3134604756242 367.4733595975829) rotate(0 -0.6547901806596883 -21.277635593244952)"><path d="M-8.27 -21.68 C-5.04 -28.9, -2.99 -37.59, -1.4 -41.83 M-8.27 -21.68 C-6.22 -27.45, -4.36 -33.26, -1.4 -41.83" stroke="#1e1e1e" stroke-width="2" fill="none"></path></g></g><mask></mask><g stroke-linecap="round"><g transform="translate(613.5167104580114 640.5837041506768) rotate(0 -1.977991240815527 -37.116404329885654)"><path d="M-0.02 -1.12 C-0.94 -13.44, -3.9 -62.72, -4.54 -75.1 M-1.49 0.91 C-2.1 -11.18, -1.61 -61.41, -2.14 -74.02" stroke="#e03131" stroke-width="2" fill="none"></path></g><g transform="translate(613.5167104580114 640.5837041506768) rotate(0 -1.977991240815527 -37.116404329885654)"><path d="M6.72 -50.64 C1.72 -60.51, -1.23 -68.34, -2.14 -74.02 M6.72 -50.64 C5 -55.03, 2.63 -59.43, -2.14 -74.02" stroke="#e03131" stroke-width="2" fill="none"></path></g><g transform="translate(613.5167104580114 640.5837041506768) rotate(0 -1.977991240815527 -37.116404329885654)"><path d="M-10.38 -50.41 C-8.87 -60.37, -5.32 -68.29, -2.14 -74.02 M-10.38 -50.41 C-8.66 -54.89, -7.59 -59.33, -2.14 -74.02" stroke="#e03131" stroke-width="2" fill="none"></path></g></g><mask></mask><g stroke-linecap="round"><g transform="translate(515.4611887955416 387.4983849658964) rotate(0 -104.51261881015631 -33.220220038268735)"><path d="M0.74 0.82 C-33.87 -10.1, -173.44 -55.24, -208.38 -66.39 M-0.33 0.21 C-34.98 -10.42, -174.11 -54.02, -208.99 -64.83" stroke="#e03131" stroke-width="2" fill="none"></path></g><g transform="translate(515.4611887955416 387.4983849658964) rotate(0 -104.51261881015631 -33.220220038268735)"><path d="M-184.01 -66 C-188.64 -64.49, -195.92 -65.04, -208.99 -64.83 M-184.01 -66 C-191.75 -65.83, -201.17 -65.68, -208.99 -64.83" stroke="#e03131" stroke-width="2" fill="none"></path></g><g transform="translate(515.4611887955416 387.4983849658964) rotate(0 -104.51261881015631 -33.220220038268735)"><path d="M-189.1 -49.67 C-192.39 -52.11, -198.45 -56.58, -208.99 -64.83 M-189.1 -49.67 C-195.07 -54.87, -202.82 -60.06, -208.99 -64.83" stroke="#e03131" stroke-width="2" fill="none"></path></g></g><mask></mask><g stroke-linecap="round"><g transform="translate(318.66423808365573 248.9849582630033) rotate(0 73.9404619530332 -32.03402881254891)"><path d="M0.47 -0.92 C25.13 -11.8, 124.6 -53.95, 149.05 -64.48 M-0.74 1.22 C23.77 -9.57, 123.65 -52.5, 148.72 -63.17" stroke="#e03131" stroke-width="2" fill="none"></path></g><g transform="translate(318.66423808365573 248.9849582630033) rotate(0 73.9404619530332 -32.03402881254891)"><path d="M130.49 -46.06 C136 -50.89, 143.99 -60.73, 148.72 -63.17 M130.49 -46.06 C136.67 -51.31, 142.35 -55.61, 148.72 -63.17" stroke="#e03131" stroke-width="2" fill="none"></path></g><g transform="translate(318.66423808365573 248.9849582630033) rotate(0 73.9404619530332 -32.03402881254891)"><path d="M123.76 -61.78 C132.02 -60.47, 142.64 -64.14, 148.72 -63.17 M123.76 -61.78 C131.8 -62.38, 139.47 -61.99, 148.72 -63.17" stroke="#e03131" stroke-width="2" fill="none"></path></g></g><mask></mask><g stroke-linecap="round"><g transform="translate(599.373239485612 164.89918478802855) rotate(0 -0.9167063016952852 -58.719252663216075)"><path d="M-0.92 -0.52 C-1.21 -20.04, -0.57 -98, -0.81 -117.52 M0.79 1.82 C0.36 -17.47, -0.53 -96.32, -1.23 -116.03" stroke="#e03131" stroke-width="2" fill="none"></path></g><g transform="translate(599.373239485612 164.89918478802855) rotate(0 -0.9167063016952852 -58.719252663216075)"><path d="M7.83 -92.73 C3.65 -99.81, 1 -111.12, -1.23 -116.03 M7.83 -92.73 C4.43 -99.01, 3.57 -104.99, -1.23 -116.03" stroke="#e03131" stroke-width="2" fill="none"></path></g><g transform="translate(599.373239485612 164.89918478802855) rotate(0 -0.9167063016952852 -58.719252663216075)"><path d="M-9.26 -92.35 C-7.05 -99.45, -3.31 -110.89, -1.23 -116.03 M-9.26 -92.35 C-7.82 -98.9, -3.83 -104.99, -1.23 -116.03" stroke="#e03131" stroke-width="2" fill="none"></path></g></g><mask></mask></svg>