<svg version="1.1" xmlns="http://www.w3.org/2000/svg" viewBox="0 0 430.26423800573684 730.5665435791016" width="860.5284760114737" height="1461.1330871582031">
  <!-- svg-source:excalidraw -->
  
  <defs>
    <style class="style-fonts">
      @font-face {
        font-family: "Virgil";
        src: url("https://excalidraw.com/Virgil.woff2");
      }
      @font-face {
        font-family: "Cascadia";
        src: url("https://excalidraw.com/Cascadia.woff2");
      }
      @font-face {
        font-family: "Assistant";
        src: url("https://excalidraw.com/Assistant-Regular.woff2");
      }
    </style>
    
  </defs>
  <rect x="0" y="0" width="430.26423800573684" height="730.5665435791016" fill="#ffffff"></rect><g stroke-linecap="round" transform="translate(60.63055419921875 685.5665435791016) rotate(0 149.67901611328125 17.5)"><path d="M8.75 0 C106.83 -1.29, 197.83 -0.63, 290.61 0 C299.26 -0.49, 302.19 6.01, 299.36 8.75 C299.07 11.28, 300.06 16.23, 299.36 26.25 C300.51 29.58, 296.41 38.44, 290.61 35 C203.92 39, 119.63 36.33, 8.75 35 C6.31 32.62, -0.13 32.09, 0 26.25 C1.85 20.05, 2.01 17.38, 0 8.75 C-2.03 4.7, 1.61 -1.29, 8.75 0" stroke="none" stroke-width="0" fill="#ffc9c9"></path><path d="M8.75 0 C76.58 1.35, 145.09 1.56, 290.61 0 M8.75 0 C105.37 -0.96, 201.08 -0.79, 290.61 0 M290.61 0 C296.13 -0.45, 298.84 1.08, 299.36 8.75 M290.61 0 C295.1 0.93, 298.8 0.68, 299.36 8.75 M299.36 8.75 C300.17 13.25, 300.4 18.12, 299.36 26.25 M299.36 8.75 C299.32 12.86, 299.45 16.62, 299.36 26.25 M299.36 26.25 C298.63 32.32, 295.08 34.58, 290.61 35 M299.36 26.25 C299.85 32.72, 298.34 35.24, 290.61 35 M290.61 35 C211.94 36.39, 134.4 36.25, 8.75 35 M290.61 35 C205.79 36.62, 120.48 36.28, 8.75 35 M8.75 35 C1.46 36.93, 1.41 31.32, 0 26.25 M8.75 35 C3.66 34.9, -2.29 29.83, 0 26.25 M0 26.25 C0.15 21.03, 0.94 15.83, 0 8.75 M0 26.25 C-0.42 23.19, 0.26 19.21, 0 8.75 M0 8.75 C1.57 2.86, 3.16 -0.19, 8.75 0 M0 8.75 C0.92 3.46, 2.05 -0.55, 8.75 0" stroke="#1e1e1e" stroke-width="2" fill="none"></path></g><g transform="translate(133.32964324951172 690.5665435791016) rotate(0 76.97992706298828 12.5)"><text x="76.97992706298828" y="17.52" font-family="Virgil, Segoe UI Emoji" font-size="20px" fill="#1e1e1e" text-anchor="middle" style="white-space: pre;" direction="ltr" dominant-baseline="alphabetic">Input embedding</text></g><g stroke-linecap="round" transform="translate(10 201.2019805908203) rotate(0 197.55853271484375 223.2277069091797)"><path d="M32 0 C108.25 -1.22, 185.38 -3.4, 363.12 0 M32 0 C150.97 0.44, 268.64 0.89, 363.12 0 M363.12 0 C383.05 -1.67, 393.95 11.68, 395.12 32 M363.12 0 C382.86 1.27, 394.52 9.37, 395.12 32 M395.12 32 C395.17 166.62, 394.5 299.68, 395.12 414.46 M395.12 32 C396.52 146.19, 395.97 260.42, 395.12 414.46 M395.12 414.46 C394.28 437.14, 385.73 447.31, 363.12 446.46 M395.12 414.46 C396.11 434.4, 383.8 448.36, 363.12 446.46 M363.12 446.46 C261.87 447.9, 160.95 449.57, 32 446.46 M363.12 446.46 C231.57 447.62, 100.52 448.05, 32 446.46 M32 446.46 C9.55 445.81, -1.78 436.11, 0 414.46 M32 446.46 C12.5 447.41, 1.2 434.76, 0 414.46 M0 414.46 C0.98 266.7, 1.86 118.69, 0 32 M0 414.46 C0.41 269.57, 0.64 125.54, 0 32 M0 32 C-0.21 9.98, 11.22 1.77, 32 0 M0 32 C0.11 12.32, 10.08 2.06, 32 0" stroke="#1e1e1e" stroke-width="2" fill="none"></path></g><g stroke-linecap="round" transform="translate(72.24700927734375 560.1044464111328) rotate(0 139.54690551757812 35.01055908203125)"><path d="M17.51 0 C74.55 1.54, 124.51 1.73, 261.59 0 C271.23 -3.02, 281.36 4.7, 279.09 17.51 C278.79 30.84, 276.29 40.82, 279.09 52.52 C275.7 65.93, 274.63 70.62, 261.59 70.02 C172.93 73.63, 81.25 73.17, 17.51 70.02 C4.22 69.75, -0.39 63.84, 0 52.52 C-3.4 44.52, 1.64 36.07, 0 17.51 C-1.3 8.3, 2.76 -2.35, 17.51 0" stroke="none" stroke-width="0" fill="#ffec99"></path><path d="M17.51 0 C107.27 -0.15, 193.52 2.45, 261.59 0 M17.51 0 C99.41 0.72, 179.68 1.26, 261.59 0 M261.59 0 C273.82 -1.78, 280.72 5.12, 279.09 17.51 M261.59 0 C271.7 -1.9, 280.88 3.63, 279.09 17.51 M279.09 17.51 C277.86 29.03, 280.49 34.94, 279.09 52.52 M279.09 17.51 C278.78 29.67, 278.9 42.64, 279.09 52.52 M279.09 52.52 C277.53 65.19, 273.99 70.96, 261.59 70.02 M279.09 52.52 C278.97 65.53, 272.78 70.43, 261.59 70.02 M261.59 70.02 C198.78 68.51, 135.57 67.72, 17.51 70.02 M261.59 70.02 C203.82 68.99, 144.52 68.84, 17.51 70.02 M17.51 70.02 C5.11 68.48, -1.25 64.9, 0 52.52 M17.51 70.02 C4.2 67.98, 1.92 64.37, 0 52.52 M0 52.52 C1.67 43.1, -1.02 33.83, 0 17.51 M0 52.52 C0.54 39.21, -0.87 27.38, 0 17.51 M0 17.51 C-0.17 7.79, 5.12 -1.12, 17.51 0 M0 17.51 C1.93 3.73, 4.26 -2.26, 17.51 0" stroke="#1e1e1e" stroke-width="2" fill="none"></path></g><g transform="translate(109.4840087890625 582.6150054931641) rotate(0 102.30990600585938 12.5)"><text x="102.30990600585938" y="17.52" font-family="Virgil, Segoe UI Emoji" font-size="20px" fill="#1e1e1e" text-anchor="middle" style="white-space: pre;" direction="ltr" dominant-baseline="alphabetic">Multi-Head Attention</text></g><g stroke-linecap="round"><g transform="translate(110.18389892578125 663.7907257080078) rotate(0 102.34121704101562 -0.37884521484375)"><path d="M-0.96 0.25 C33.48 0.21, 171.2 -0.22, 205.63 -0.33 M0.74 -0.66 C35.19 -1.06, 171.07 -1.91, 205.18 -2.23" stroke="#1e1e1e" stroke-width="2" fill="none"></path></g></g><mask></mask><g stroke-linecap="round"><g transform="translate(212.37005615234375 664.6654815673828) rotate(0 0 10.9981689453125)"><path d="M-0.08 0.19 C0 3.8, 0 18.32, 0.09 22.03 M-0.78 -0.19 C-0.73 3.48, -0.49 19.11, -0.29 22.74" stroke="#1e1e1e" stroke-width="2" fill="none"></path></g></g><mask></mask><g stroke-linecap="round"><g transform="translate(213.46606578702836 661.4668426513673) rotate(0 -0.6974799149985529 -16.25392150878912)"><path d="M-0.55 0.31 C-0.7 -4.97, -1.15 -26.66, -1.25 -32.11 M0.17 -0.01 C0 -5.4, -1.35 -27.58, -1.61 -32.86" stroke="#1e1e1e" stroke-width="2" fill="none"></path></g><g transform="translate(213.46606578702836 661.4668426513673) rotate(0 -0.6974799149985529 -16.25392150878912)"><path d="M4.79 -17.91 C3.8 -21.25, 2.43 -24.65, -1.61 -32.86 M4.79 -17.91 C2.93 -22.55, 1.05 -27.84, -1.61 -32.86" stroke="#1e1e1e" stroke-width="2" fill="none"></path></g><g transform="translate(213.46606578702836 661.4668426513673) rotate(0 -0.6974799149985529 -16.25392150878912)"><path d="M-6.32 -17.29 C-4.7 -20.72, -3.45 -24.26, -1.61 -32.86 M-6.32 -17.29 C-4.59 -22.1, -2.87 -27.6, -1.61 -32.86" stroke="#1e1e1e" stroke-width="2" fill="none"></path></g></g><mask></mask><g stroke-linecap="round"><g transform="translate(315.195114809168 661.9113322760303) rotate(0 0.43961300557225513 -16.174774719558116)"><path d="M-0.26 -0.53 C-0.05 -5.96, 0.64 -27.22, 0.84 -32.46 M0.61 0.39 C0.78 -4.97, 0.39 -26.28, 0.39 -31.82" stroke="#1e1e1e" stroke-width="2" fill="none"></path></g><g transform="translate(315.195114809168 661.9113322760303) rotate(0 0.43961300557225513 -16.174774719558116)"><path d="M6.07 -16.67 C4.01 -20.12, 3.35 -23.39, 0.39 -31.82 M6.07 -16.67 C3.82 -22, 1.8 -28.03, 0.39 -31.82" stroke="#1e1e1e" stroke-width="2" fill="none"></path></g><g transform="translate(315.195114809168 661.9113322760303) rotate(0 0.43961300557225513 -16.174774719558116)"><path d="M-5 -16.57 C-4.59 -20.01, -2.78 -23.3, 0.39 -31.82 M-5 -16.57 C-3.21 -21.93, -1.2 -27.99, 0.39 -31.82" stroke="#1e1e1e" stroke-width="2" fill="none"></path></g></g><mask></mask><g stroke-linecap="round" transform="translate(75.94464111328125 508.1869659423828) rotate(0 136.5433349609375 19.08331298828125)"><path d="M9.54 0 C97.42 -1.26, 181.13 -1, 263.55 0 C267.51 -2.74, 273.53 1.67, 273.09 9.54 C270.63 18.08, 273.95 18.74, 273.09 28.62 C273.02 33.78, 267.97 37.3, 263.55 38.17 C174 37.53, 78.68 36.83, 9.54 38.17 C0.26 38.27, 1.38 34.72, 0 28.62 C-3.21 26.23, -0.98 19.82, 0 9.54 C-0.37 3.94, 2.38 -1.49, 9.54 0" stroke="none" stroke-width="0" fill="#ffec99"></path><path d="M9.54 0 C69.98 -1.54, 131.35 -0.5, 263.55 0 M9.54 0 C92.45 -1.68, 173.76 -1.61, 263.55 0 M263.55 0 C268.02 0.77, 273.71 2.69, 273.09 9.54 M263.55 0 C268.16 0.87, 273.99 3.71, 273.09 9.54 M273.09 9.54 C273.67 17.06, 271.92 22.6, 273.09 28.62 M273.09 9.54 C272.91 16.58, 273.58 24.64, 273.09 28.62 M273.09 28.62 C274.91 34.94, 270.16 36.27, 263.55 38.17 M273.09 28.62 C275.16 36.92, 270 38.58, 263.55 38.17 M263.55 38.17 C191.81 37.37, 117.49 37.26, 9.54 38.17 M263.55 38.17 C181.06 39.25, 98.93 40.49, 9.54 38.17 M9.54 38.17 C3.04 38.33, 1.5 34.66, 0 28.62 M9.54 38.17 C3.39 36, 0.63 35.42, 0 28.62 M0 28.62 C-1.4 20.56, -0.77 14.98, 0 9.54 M0 28.62 C0.82 22.28, 0.33 16.44, 0 9.54 M0 9.54 C0.21 3.33, 4.9 1.84, 9.54 0 M0 9.54 C-0.14 2.05, 4.15 1.53, 9.54 0" stroke="#1e1e1e" stroke-width="2" fill="none"></path></g><g transform="translate(133.0080337524414 514.7702789306641) rotate(0 79.47994232177734 12.5)"><text x="79.47994232177734" y="17.52" font-family="Virgil, Segoe UI Emoji" font-size="20px" fill="#1e1e1e" text-anchor="middle" style="white-space: pre;" direction="ltr" dominant-baseline="alphabetic">Add + Normalize</text></g><g stroke-linecap="round"><g transform="translate(361.10400390625 705.3408355712891) rotate(0 26.46832275390625 -0.545379638671875)"><path d="M-0.08 -0.8 C8.89 -0.85, 44.19 -1, 52.95 -1.22 M-1.58 1.39 C7.3 1.61, 43.17 0.71, 52.01 0.25" stroke="#1e1e1e" stroke-width="2" fill="none"></path></g></g><mask></mask><g stroke-linecap="round"><g transform="translate(414.7308349609375 705.7640533447266) rotate(0 0.28338623046875 -89.81341552734375)"><path d="M0.69 0.1 C0.94 -29.96, 0.89 -150.5, 0.84 -180.33 M-0.4 -0.89 C-0.24 -30.81, 0.04 -149.17, 0.04 -179.17" stroke="#1e1e1e" stroke-width="2" fill="none"></path></g></g><mask></mask><g stroke-linecap="round"><g transform="translate(108.58927110503214 664.4415740966797) rotate(0 0.1032982210759883 -16.343490600585938)"><path d="M0.2 0.41 C0.23 -5.1, -0.12 -27.66, -0.08 -33.09 M-0.36 0.15 C-0.13 -5.31, 0.91 -27.08, 1.01 -32.59" stroke="#1e1e1e" stroke-width="2" fill="none"></path></g><g transform="translate(108.58927110503214 664.4415740966797) rotate(0 0.1032982210759883 -16.343490600585938)"><path d="M6.06 -17.05 C5.38 -21.44, 2.88 -24.64, 1.01 -32.59 M6.06 -17.05 C4.16 -23.27, 2.16 -29.13, 1.01 -32.59" stroke="#1e1e1e" stroke-width="2" fill="none"></path></g><g transform="translate(108.58927110503214 664.4415740966797) rotate(0 0.1032982210759883 -16.343490600585938)"><path d="M-5.11 -17.44 C-2.94 -21.75, -2.58 -24.85, 1.01 -32.59 M-5.11 -17.44 C-2.58 -23.48, -0.15 -29.18, 1.01 -32.59" stroke="#1e1e1e" stroke-width="2" fill="none"></path></g></g><mask></mask><g stroke-linecap="round"><g transform="translate(212.39093017578125 560.9356231689453) rotate(0 -0.061370849609375 -7.716217041015625)"><path d="M-0.29 -0.52 C-0.24 -3.12, -0.18 -12.6, -0.1 -15.17 M0.57 0.4 C0.58 -2.4, -0.43 -13.34, -0.52 -15.99" stroke="#1e1e1e" stroke-width="2" fill="none"></path></g><g transform="translate(212.39093017578125 560.9356231689453) rotate(0 -0.061370849609375 -7.716217041015625)"><path d="M2.59 -8.93 C1.49 -10.54, 1.32 -11.95, -0.52 -15.99 M2.59 -8.93 C1.77 -10.33, 1.2 -12.11, -0.52 -15.99" stroke="#1e1e1e" stroke-width="2" fill="none"></path></g><g transform="translate(212.39093017578125 560.9356231689453) rotate(0 -0.061370849609375 -7.716217041015625)"><path d="M-2.68 -8.59 C-2.57 -10.26, -1.53 -11.75, -0.52 -15.99 M-2.68 -8.59 C-2.36 -10.09, -1.8 -11.93, -0.52 -15.99" stroke="#1e1e1e" stroke-width="2" fill="none"></path></g></g><mask></mask><g stroke-linecap="round" transform="translate(39.6434326171875 318.4319610595703) rotate(0 39.34661865234375 34.41728210449219)"><path d="M17.21 0 C25.33 2.78, 37.34 1.25, 61.48 0 C70.65 -3.13, 80 8.29, 78.69 17.21 C82.66 30.72, 75.85 42.82, 78.69 51.63 C76.28 60.44, 69.94 68.91, 61.48 68.83 C46.13 66.11, 30.63 71.04, 17.21 68.83 C2.67 67.55, 3.34 60.2, 0 51.63 C-3.83 45.45, -3.7 32, 0 17.21 C-0.69 5.72, 2.41 -2.64, 17.21 0" stroke="none" stroke-width="0" fill="#b2f2bb"></path><path d="M17.21 0 C28.09 1.74, 42.33 1.15, 61.48 0 M17.21 0 C34.46 0.66, 50.88 0.93, 61.48 0 M61.48 0 C71.82 -0.18, 79.59 4.66, 78.69 17.21 M61.48 0 C75.21 2.27, 80.78 4, 78.69 17.21 M78.69 17.21 C77.13 26.55, 79.86 34.53, 78.69 51.63 M78.69 17.21 C78.76 25.49, 78.39 35.56, 78.69 51.63 M78.69 51.63 C78.04 62.78, 73.67 69.66, 61.48 68.83 M78.69 51.63 C76.9 60.82, 72.13 68.89, 61.48 68.83 M61.48 68.83 C47.18 70.31, 31.37 67.69, 17.21 68.83 M61.48 68.83 C51.7 68.6, 42.18 68.38, 17.21 68.83 M17.21 68.83 C7.09 67.89, -0.14 63.01, 0 51.63 M17.21 68.83 C7.7 68.86, -0.96 64.12, 0 51.63 M0 51.63 C-0.18 45.51, -1.45 34.8, 0 17.21 M0 51.63 C-0.09 44.41, 0.68 37.38, 0 17.21 M0 17.21 C1.05 6.99, 4.12 -0.12, 17.21 0 M0 17.21 C-0.92 6.34, 5.51 -1.23, 17.21 0" stroke="#1e1e1e" stroke-width="2" fill="none"></path></g><g transform="translate(46.28008270263672 327.8492431640625) rotate(0 32.70996856689453 25)"><text x="32.70996856689453" y="17.52" font-family="Virgil, Segoe UI Emoji" font-size="20px" fill="#1e1e1e" text-anchor="middle" style="white-space: pre;" direction="ltr" dominant-baseline="alphabetic">Expert</text><text x="32.70996856689453" y="42.519999999999996" font-family="Virgil, Segoe UI Emoji" font-size="20px" fill="#1e1e1e" text-anchor="middle" style="white-space: pre;" direction="ltr" dominant-baseline="alphabetic">1</text></g><g stroke-linecap="round" transform="translate(126.241455078125 319.7424011230469) rotate(0 39.34661865234375 34.41728210449219)"><path d="M17.21 0 C32.19 -0.52, 40.83 -0.17, 61.48 0 C71.86 2.34, 81.39 4.03, 78.69 17.21 C75.18 24.38, 79.8 35.24, 78.69 51.63 C76.65 65.43, 76.55 71.02, 61.48 68.83 C46.09 68.56, 39.73 69.11, 17.21 68.83 C5 68, -0.86 65.27, 0 51.63 C-3.11 43.23, 2.37 29.07, 0 17.21 C-1.74 6.16, 4.1 -3.34, 17.21 0" stroke="none" stroke-width="0" fill="#b2f2bb"></path><path d="M17.21 0 C26.47 1.52, 34.02 -0.05, 61.48 0 M17.21 0 C28.67 -0.33, 37.53 -0.84, 61.48 0 M61.48 0 C71.01 -0.91, 76.71 6.22, 78.69 17.21 M61.48 0 C74.55 1.72, 77.02 5.19, 78.69 17.21 M78.69 17.21 C79.97 29.47, 79.87 46, 78.69 51.63 M78.69 17.21 C77.92 30.21, 77.93 43.16, 78.69 51.63 M78.69 51.63 C78.34 62.41, 72.91 68.59, 61.48 68.83 M78.69 51.63 C77.76 64.5, 72.68 68.07, 61.48 68.83 M61.48 68.83 C44.03 69, 28.39 67.6, 17.21 68.83 M61.48 68.83 C48.17 68.89, 33.74 67.9, 17.21 68.83 M17.21 68.83 C6.47 68.58, -1.42 63.12, 0 51.63 M17.21 68.83 C5.21 67.45, 0.66 62.45, 0 51.63 M0 51.63 C1.88 42.01, 0.73 33.36, 0 17.21 M0 51.63 C-0.41 44.31, -1.09 35.99, 0 17.21 M0 17.21 C-0.06 6.49, 7.14 1, 17.21 0 M0 17.21 C-1.88 7.82, 6.65 -0.27, 17.21 0" stroke="#1e1e1e" stroke-width="2" fill="none"></path></g><g transform="translate(132.87810516357422 329.15968322753906) rotate(0 32.70996856689453 25)"><text x="32.70996856689453" y="17.52" font-family="Virgil, Segoe UI Emoji" font-size="20px" fill="#1e1e1e" text-anchor="middle" style="white-space: pre;" direction="ltr" dominant-baseline="alphabetic">Expert</text><text x="32.70996856689453" y="42.519999999999996" font-family="Virgil, Segoe UI Emoji" font-size="20px" fill="#1e1e1e" text-anchor="middle" style="white-space: pre;" direction="ltr" dominant-baseline="alphabetic">2</text></g><g stroke-linecap="round" transform="translate(213.032958984375 318.10186767578125) rotate(0 39.34661865234375 34.41728210449219)"><path d="M17.21 0 C29.44 1.3, 43.85 -1.25, 61.48 0 C69.93 -1.23, 77.44 6.26, 78.69 17.21 C81.49 33.52, 79.1 42.75, 78.69 51.63 C81.58 66.69, 74.5 66.97, 61.48 68.83 C45.94 64.74, 26.41 70.3, 17.21 68.83 C2.37 70.55, -1.24 63.18, 0 51.63 C0.7 41.62, 1.73 27.82, 0 17.21 C0.47 2.48, 8.76 -1.65, 17.21 0" stroke="none" stroke-width="0" fill="#b2f2bb"></path><path d="M17.21 0 C29.01 -0.36, 42.02 -0.43, 61.48 0 M17.21 0 C29.8 -0.01, 43.64 -0.91, 61.48 0 M61.48 0 C71.24 0.81, 78.04 5.8, 78.69 17.21 M61.48 0 C72.47 1.92, 77.08 7.26, 78.69 17.21 M78.69 17.21 C79.81 27.32, 80.09 32.94, 78.69 51.63 M78.69 17.21 C79.25 24.66, 78.73 33, 78.69 51.63 M78.69 51.63 C77.3 61.74, 74.52 68.39, 61.48 68.83 M78.69 51.63 C78.25 61.19, 72.29 71.01, 61.48 68.83 M61.48 68.83 C53.68 69.29, 41.25 66.9, 17.21 68.83 M61.48 68.83 C46.85 68.63, 34.35 68.69, 17.21 68.83 M17.21 68.83 C6.55 70.51, 0.32 62.18, 0 51.63 M17.21 68.83 C6.36 69.9, 1.87 61.76, 0 51.63 M0 51.63 C-1.79 39.59, 0.65 26.73, 0 17.21 M0 51.63 C-0.14 41.82, -0.92 31.72, 0 17.21 M0 17.21 C-1.31 7.38, 7.04 -1.29, 17.21 0 M0 17.21 C-0.67 3.84, 7.11 -1.78, 17.21 0" stroke="#1e1e1e" stroke-width="2" fill="none"></path></g><g transform="translate(219.66960906982422 327.51914978027344) rotate(0 32.70996856689453 25)"><text x="32.70996856689453" y="17.52" font-family="Virgil, Segoe UI Emoji" font-size="20px" fill="#1e1e1e" text-anchor="middle" style="white-space: pre;" direction="ltr" dominant-baseline="alphabetic">Expert</text><text x="32.70996856689453" y="42.519999999999996" font-family="Virgil, Segoe UI Emoji" font-size="20px" fill="#1e1e1e" text-anchor="middle" style="white-space: pre;" direction="ltr" dominant-baseline="alphabetic">3</text></g><g stroke-linecap="round" transform="translate(298.0694580078125 320.8203125) rotate(0 39.34661865234375 34.41728210449219)"><path d="M17.21 0 C32.02 -1.38, 43.78 3.93, 61.48 0 C76.44 -0.27, 77.28 7.71, 78.69 17.21 C80.4 27.98, 76.57 38.32, 78.69 51.63 C81.41 61.47, 74.37 67.45, 61.48 68.83 C47.32 69.25, 30.11 67.59, 17.21 68.83 C2.52 65.88, 0.41 61.44, 0 51.63 C0.03 39.02, 1.15 30.02, 0 17.21 C-2.77 6.04, 6.95 1.27, 17.21 0" stroke="none" stroke-width="0" fill="#b2f2bb"></path><path d="M17.21 0 C34.53 -0.83, 53.48 -1.11, 61.48 0 M17.21 0 C29.22 -0.08, 42.36 -0.54, 61.48 0 M61.48 0 C73.9 1.68, 77.71 6.87, 78.69 17.21 M61.48 0 C73.8 2.19, 76.42 6.5, 78.69 17.21 M78.69 17.21 C78.18 23.81, 79.77 32.18, 78.69 51.63 M78.69 17.21 C79.44 28.94, 78.66 39.45, 78.69 51.63 M78.69 51.63 C77.43 62.11, 73.56 68.61, 61.48 68.83 M78.69 51.63 C79.87 60.97, 74.87 67.45, 61.48 68.83 M61.48 68.83 C48.27 66.58, 34.68 69.33, 17.21 68.83 M61.48 68.83 C47.28 69.78, 34.01 67.92, 17.21 68.83 M17.21 68.83 C7.42 68.66, 1.29 62.45, 0 51.63 M17.21 68.83 C6.82 70.49, 1.77 64.56, 0 51.63 M0 51.63 C-1.2 39.05, 1.95 28.35, 0 17.21 M0 51.63 C-1.05 42.3, 0.2 33.96, 0 17.21 M0 17.21 C0.53 7.23, 4.42 -1.88, 17.21 0 M0 17.21 C1.68 3.94, 4 -1.57, 17.21 0" stroke="#1e1e1e" stroke-width="2" fill="none"></path></g><g transform="translate(304.7061080932617 330.2375946044922) rotate(0 32.70996856689453 25)"><text x="32.70996856689453" y="17.52" font-family="Virgil, Segoe UI Emoji" font-size="20px" fill="#1e1e1e" text-anchor="middle" style="white-space: pre;" direction="ltr" dominant-baseline="alphabetic">Expert</text><text x="32.70996856689453" y="42.519999999999996" font-family="Virgil, Segoe UI Emoji" font-size="20px" fill="#1e1e1e" text-anchor="middle" style="white-space: pre;" direction="ltr" dominant-baseline="alphabetic">4</text></g><g stroke-linecap="round"><g transform="translate(417.3216552734375 526.4394683837891) rotate(0 -33.46563720703125 0.113739013671875)"><path d="M-1.09 0.16 C-12.24 0.17, -56.11 -0.41, -67.02 -0.24 M0.54 -0.8 C-10.77 -0.6, -56.74 1.03, -68.02 1.06" stroke="#1e1e1e" stroke-width="2" fill="none"></path></g><g transform="translate(417.3216552734375 526.4394683837891) rotate(0 -33.46563720703125 0.113739013671875)"><path d="M-44.72 -7.99 C-51.19 -5.75, -58.97 -2.36, -68.02 1.06 M-44.72 -7.99 C-53.98 -5.19, -62.2 -0.15, -68.02 1.06" stroke="#1e1e1e" stroke-width="2" fill="none"></path></g><g transform="translate(417.3216552734375 526.4394683837891) rotate(0 -33.46563720703125 0.113739013671875)"><path d="M-44.35 9.11 C-50.9 6.41, -58.77 4.87, -68.02 1.06 M-44.35 9.11 C-53.74 5.42, -62.11 3.97, -68.02 1.06" stroke="#1e1e1e" stroke-width="2" fill="none"></path></g></g><mask></mask><g stroke-linecap="round"><g transform="translate(211.18975830078125 466.0602569580078) rotate(0 0.180694580078125 20.76446533203125)"><path d="M-0.47 -0.3 C-0.39 6.64, 0.44 34.26, 0.5 41.18 M0.29 0.74 C0.31 7.78, 0.02 34.88, 0.13 41.7" stroke="#1e1e1e" stroke-width="2" fill="none"></path></g></g><mask></mask><g stroke-linecap="round" transform="translate(115.88775634765625 431.5124053955078) rotate(0 89.293212890625 17.5)"><path d="M8.75 0 C58.19 0.58, 102.53 -0.56, 169.84 0 C177.1 2.86, 176.16 3.73, 178.59 8.75 C175.79 15.34, 179.07 20.88, 178.59 26.25 C177.49 31.47, 179.23 35.94, 169.84 35 C130.71 30.64, 96.58 29.99, 8.75 35 C4.64 36.48, -0.04 35.24, 0 26.25 C-2.21 23.59, 0.49 17.93, 0 8.75 C2.4 5.84, -0.68 3.26, 8.75 0" stroke="none" stroke-width="0" fill="#a5d8ff"></path><path d="M8.75 0 C61.16 -0.52, 112.44 -1.55, 169.84 0 M8.75 0 C41.96 -2.17, 76.06 -0.96, 169.84 0 M169.84 0 C177.08 0.16, 176.85 2.96, 178.59 8.75 M169.84 0 C175.66 1.83, 180.86 4.28, 178.59 8.75 M178.59 8.75 C179.49 16.63, 178.22 22.96, 178.59 26.25 M178.59 8.75 C178.06 14.11, 179 19.46, 178.59 26.25 M178.59 26.25 C177.18 30.67, 174.62 35.87, 169.84 35 M178.59 26.25 C177.09 31.18, 177.12 35.27, 169.84 35 M169.84 35 C125.01 32.22, 80.19 32.68, 8.75 35 M169.84 35 C113.59 36.98, 56.25 36.55, 8.75 35 M8.75 35 C1.91 36.01, 1.03 33.55, 0 26.25 M8.75 35 C4.84 35.54, -1.32 32.49, 0 26.25 M0 26.25 C-1.67 21.08, -0.62 17.2, 0 8.75 M0 26.25 C0.02 22.66, -0.83 18.35, 0 8.75 M0 8.75 C0.22 3.71, 1.96 -1.43, 8.75 0 M0 8.75 C-0.19 5.15, 4.71 -1.74, 8.75 0" stroke="#1e1e1e" stroke-width="2" fill="none"></path></g><g transform="translate(171.76100158691406 436.5124053955078) rotate(0 33.41996765136719 12.5)"><text x="33.41996765136719" y="17.52" font-family="Virgil, Segoe UI Emoji" font-size="20px" fill="#1e1e1e" text-anchor="middle" style="white-space: pre;" direction="ltr" dominant-baseline="alphabetic">Router</text></g><g stroke-linecap="round"><g transform="translate(79.928466796875 412.3112335205078) rotate(0 129.53793334960938 0.837982177734375)"><path d="M-0.68 -0.64 C42.34 -0.09, 214.77 2.14, 258.1 2.37 M1.17 1.64 C44.55 1.92, 217.38 0.63, 260.29 0.61" stroke="#1e1e1e" stroke-width="2" fill="none"></path></g></g><mask></mask><g stroke-linecap="round"><g transform="translate(211.0816650390625 413.20326232910156) rotate(0 -0.120025634765625 8.73797607421875)"><path d="M-0.06 0.08 C0.06 3, 0.29 15, 0.21 17.83 M-0.76 -0.35 C-0.62 2.38, 0.06 14.08, 0.02 17.05" stroke="#1e1e1e" stroke-width="2" fill="none"></path></g></g><mask></mask><g stroke-linecap="round"><g transform="translate(81.43402099609375 413.6544952392578) rotate(0 0 -14.012298583984375)"><path d="M-0.49 0.21 C-0.51 -4.5, -0.41 -23.13, -0.4 -27.81 M0.26 -0.15 C0.44 -4.8, 0.56 -24.15, 0.63 -28.67" stroke="#1e1e1e" stroke-width="2" fill="none"></path></g><g transform="translate(81.43402099609375 413.6544952392578) rotate(0 0 -14.012298583984375)"><path d="M5.28 -15.45 C4.35 -19.23, 3.21 -22.49, 0.63 -28.67 M5.28 -15.45 C4.15 -19.35, 2.48 -23.77, 0.63 -28.67" stroke="#1e1e1e" stroke-width="2" fill="none"></path></g><g transform="translate(81.43402099609375 413.6544952392578) rotate(0 0 -14.012298583984375)"><path d="M-4.3 -15.55 C-2.87 -19.26, -1.66 -22.5, 0.63 -28.67 M-4.3 -15.55 C-2.36 -19.47, -0.95 -23.86, 0.63 -28.67" stroke="#1e1e1e" stroke-width="2" fill="none"></path></g></g><mask></mask><g stroke-linecap="round"><g transform="translate(166.36627197265625 412.44898986816406) rotate(0 0.220367431640625 -12.299041748046875)"><path d="M-0.36 -0.2 C-0.25 -4.31, 0.79 -20.92, 0.83 -24.94 M0.46 -0.78 C0.51 -4.8, 0.53 -20.33, 0.6 -24.42" stroke="#1e1e1e" stroke-width="2" fill="none"></path></g><g transform="translate(166.36627197265625 412.44898986816406) rotate(0 0.220367431640625 -12.299041748046875)"><path d="M4.71 -12.82 C3.13 -16.31, 1.58 -21.27, 0.6 -24.42 M4.71 -12.82 C3.08 -16.89, 2.06 -20.83, 0.6 -24.42" stroke="#1e1e1e" stroke-width="2" fill="none"></path></g><g transform="translate(166.36627197265625 412.44898986816406) rotate(0 0.220367431640625 -12.299041748046875)"><path d="M-3.71 -12.9 C-2.45 -16.33, -1.15 -21.27, 0.6 -24.42 M-3.71 -12.9 C-2.42 -16.93, -0.53 -20.84, 0.6 -24.42" stroke="#1e1e1e" stroke-width="2" fill="none"></path></g></g><mask></mask><g stroke-linecap="round"><g transform="translate(252.234375 413.7257843017578) rotate(0 -0.28111637439258175 -12.894676208496094)"><path d="M-0.16 0.54 C-0.22 -3.75, -0.18 -21.62, -0.27 -26.07 M0.75 0.34 C0.65 -3.85, -0.24 -21.16, -0.56 -25.52" stroke="#1e1e1e" stroke-width="2" fill="none"></path></g><g transform="translate(252.234375 413.7257843017578) rotate(0 -0.28111637439258175 -12.894676208496094)"><path d="M4.57 -13.69 C3.67 -16.99, 1.13 -21.14, -0.56 -25.52 M4.57 -13.69 C3.48 -16.05, 2.34 -18.95, -0.56 -25.52" stroke="#1e1e1e" stroke-width="2" fill="none"></path></g><g transform="translate(252.234375 413.7257843017578) rotate(0 -0.28111637439258175 -12.894676208496094)"><path d="M-4.23 -13.16 C-2.44 -16.61, -2.27 -20.92, -0.56 -25.52 M-4.23 -13.16 C-3.35 -15.65, -2.52 -18.66, -0.56 -25.52" stroke="#1e1e1e" stroke-width="2" fill="none"></path></g></g><mask></mask><g stroke-linecap="round"><g transform="translate(337.22406005859375 413.2815704345703) rotate(0 -0.386260986328125 -12.09033203125)"><path d="M0.49 0.27 C0.52 -3.83, -0.03 -20.2, -0.32 -24.3 M0.08 -0.06 C0.12 -4.11, -0.48 -19.71, -0.52 -23.66" stroke="#1e1e1e" stroke-width="2" fill="none"></path></g><g transform="translate(337.22406005859375 413.2815704345703) rotate(0 -0.386260986328125 -12.09033203125)"><path d="M3.9 -12.4 C3.24 -14.25, 1.88 -17.6, -0.52 -23.66 M3.9 -12.4 C2.49 -15.76, 1.58 -18.77, -0.52 -23.66" stroke="#1e1e1e" stroke-width="2" fill="none"></path></g><g transform="translate(337.22406005859375 413.2815704345703) rotate(0 -0.386260986328125 -12.09033203125)"><path d="M-4.37 -12.19 C-3.29 -14.12, -2.92 -17.52, -0.52 -23.66 M-4.37 -12.19 C-3.47 -15.6, -2.08 -18.67, -0.52 -23.66" stroke="#1e1e1e" stroke-width="2" fill="none"></path></g></g><mask></mask><g stroke-linecap="round" transform="translate(68.56298828125 229.3410186767578) rotate(0 136.5433349609375 19.08331298828125)"><path d="M9.54 0 C101.95 -1.7, 189.34 0.41, 263.55 0 C272.87 -1.8, 270.47 3.4, 273.09 9.54 C270.22 18.31, 274.51 19.59, 273.09 28.62 C276.3 38.06, 271.7 37.18, 263.55 38.17 C195.89 40.14, 128.31 43.22, 9.54 38.17 C0.81 38.18, -0.99 36.89, 0 28.62 C1.67 23.62, 1.57 16.72, 0 9.54 C-2.43 3.55, 3.58 1.92, 9.54 0" stroke="none" stroke-width="0" fill="#ffec99"></path><path d="M9.54 0 C90.55 -0.51, 171.72 -2.31, 263.55 0 M9.54 0 C68.7 -2.27, 128.67 -2.32, 263.55 0 M263.55 0 C270.17 -0.64, 272.65 5.04, 273.09 9.54 M263.55 0 C270.39 -1.11, 274.46 4.99, 273.09 9.54 M273.09 9.54 C272.05 13.85, 274.19 19.76, 273.09 28.62 M273.09 9.54 C273.83 13.98, 273.4 18.92, 273.09 28.62 M273.09 28.62 C273.6 33.67, 270.72 39.81, 263.55 38.17 M273.09 28.62 C273.3 35.51, 271.62 37.62, 263.55 38.17 M263.55 38.17 C204.47 36.08, 144.37 36.28, 9.54 38.17 M263.55 38.17 C190.16 38.05, 115.31 38.29, 9.54 38.17 M9.54 38.17 C2.3 36.55, -1.06 35.5, 0 28.62 M9.54 38.17 C4.93 36.14, 0.85 34.06, 0 28.62 M0 28.62 C0.02 20.34, -1.79 14.7, 0 9.54 M0 28.62 C-0.25 23.8, 0.5 18.96, 0 9.54 M0 9.54 C-0.18 4.64, 2.26 0.32, 9.54 0 M0 9.54 C-1.79 5.01, 4.72 1.91, 9.54 0" stroke="#1e1e1e" stroke-width="2" fill="none"></path></g><g transform="translate(125.62638092041016 235.92433166503906) rotate(0 79.47994232177734 12.5)"><text x="79.47994232177734" y="17.52" font-family="Virgil, Segoe UI Emoji" font-size="20px" fill="#1e1e1e" text-anchor="middle" style="white-space: pre;" direction="ltr" dominant-baseline="alphabetic">Add + Normalize</text></g><g stroke-linecap="round"><g transform="translate(78.3275146484375 290.36549377441406) rotate(0 131.932373046875 0.932952880859375)"><path d="M0.68 0.52 C44.73 0.84, 219.62 2.21, 263.28 2.24 M-0.42 -0.25 C44.12 -0.33, 221.46 0.04, 265.69 0.32" stroke="#1e1e1e" stroke-width="2" fill="none"></path></g></g><mask></mask><g stroke-linecap="round"><g transform="translate(78.6468505859375 291.4847869873047) rotate(0 -0.758270263671875 13.898590087890625)"><path d="M-0.53 0.29 C-0.77 4.89, -0.95 22.76, -1.21 27.27 M0.21 -0.04 C-0.1 4.64, -1.28 23.08, -1.48 27.7" stroke="#1e1e1e" stroke-width="2" fill="none"></path></g></g><mask></mask><g stroke-linecap="round"><g transform="translate(163.3077392578125 291.8170928955078) rotate(0 0.25750732421875 13.5946044921875)"><path d="M0.26 0.02 C0.25 4.55, 0.4 22.28, 0.42 26.73 M-0.28 -0.45 C-0.4 4.18, -0.1 22.61, -0.06 27.2" stroke="#1e1e1e" stroke-width="2" fill="none"></path></g></g><mask></mask><g stroke-linecap="round"><g transform="translate(251.355224609375 292.3252716064453) rotate(0 -0.3956298828125 13.453765869140625)"><path d="M-0.54 -0.44 C-0.55 4, -0.29 22.27, -0.36 26.87 M0.18 0.53 C0.16 5.03, -0.31 23.27, -0.58 27.55" stroke="#1e1e1e" stroke-width="2" fill="none"></path></g></g><mask></mask><g stroke-linecap="round"><g transform="translate(341.2950439453125 293.4521942138672) rotate(0 0.10272216796875 14.034194946289062)"><path d="M0.08 0.39 C0.19 4.93, 0.19 22.98, 0.25 27.66 M-0.54 0.11 C-0.47 4.67, -0.28 23.57, -0.15 28.15" stroke="#1e1e1e" stroke-width="2" fill="none"></path></g></g><mask></mask><g stroke-linecap="round"><g transform="translate(203.87396240234375 290.83399963378906) rotate(0 0.029571533203125 -12.681838989257812)"><path d="M0.4 -0.16 C0.37 -4.45, -0.21 -21.5, -0.21 -25.62 M-0.05 -0.72 C0.09 -4.94, 0.84 -20.9, 0.88 -25.05" stroke="#1e1e1e" stroke-width="2" fill="none"></path></g><g transform="translate(203.87396240234375 290.83399963378906) rotate(0 0.029571533203125 -12.681838989257812)"><path d="M4.85 -13.01 C3.46 -16.94, 2.15 -19.89, 0.88 -25.05 M4.85 -13.01 C3.52 -17.64, 1.77 -22.52, 0.88 -25.05" stroke="#1e1e1e" stroke-width="2" fill="none"></path></g><g transform="translate(203.87396240234375 290.83399963378906) rotate(0 0.029571533203125 -12.681838989257812)"><path d="M-3.82 -13.27 C-2.6 -17.16, -1.29 -20.03, 0.88 -25.05 M-3.82 -13.27 C-1.75 -17.83, -0.1 -22.61, 0.88 -25.05" stroke="#1e1e1e" stroke-width="2" fill="none"></path></g></g><mask></mask><g stroke-linecap="round"><g transform="translate(210.9788818359375 484.59718322753906) rotate(0 103.19219970703125 0.33538818359375)"><path d="M-1.06 -0.24 C33.32 0.03, 171.06 1.24, 205.83 1.3 M0.59 -1.41 C34.79 -1.47, 170.13 -0.91, 204.6 -0.49" stroke="#1e1e1e" stroke-width="2" fill="none"></path></g></g><mask></mask><g stroke-linecap="round"><g transform="translate(417.1446533203125 486.83839416503906) rotate(0 0.13519287109375 -119.55966186523438)"><path d="M-0.28 -0.49 C-0.24 -40.34, 0.79 -200.1, 0.89 -240 M1.77 -1.79 C1.65 -41.44, 0.64 -199.39, 0.27 -238.93" stroke="#1e1e1e" stroke-width="2" fill="none"></path></g></g><mask></mask><g stroke-linecap="round"><g transform="translate(419.166015625 252.069418531545) rotate(0 -37.337982177734375 -0.7623954394066175)"><path d="M-0.72 -1.16 C-13.11 -1.75, -61.95 -2.51, -74.09 -2.61 M1.1 0.85 C-11.42 0.28, -62.26 -1.41, -74.73 -1.65" stroke="#1e1e1e" stroke-width="2" fill="none"></path></g><g transform="translate(419.166015625 252.069418531545) rotate(0 -37.337982177734375 -0.7623954394066175)"><path d="M-51.01 -9.55 C-60.48 -6.18, -67.97 -2.74, -74.73 -1.65 M-51.01 -9.55 C-57.12 -6.65, -64.68 -6.28, -74.73 -1.65" stroke="#1e1e1e" stroke-width="2" fill="none"></path></g><g transform="translate(419.166015625 252.069418531545) rotate(0 -37.337982177734375 -0.7623954394066175)"><path d="M-51.48 7.54 C-60.94 5.43, -68.28 3.4, -74.73 -1.65 M-51.48 7.54 C-57.43 5.64, -64.86 1.21, -74.73 -1.65" stroke="#1e1e1e" stroke-width="2" fill="none"></path></g></g><mask></mask><g stroke-linecap="round" transform="translate(69.02056884765625 142.9411163330078) rotate(0 136.5433349609375 19.08331298828125)"><path d="M9.54 0 C98.45 -2.84, 183.04 1.76, 263.55 0 C269.63 2.04, 274.9 3.09, 273.09 9.54 C272.55 15.97, 270.95 17.92, 273.09 28.62 C270.02 34.59, 270.34 36.33, 263.55 38.17 C170.06 36.81, 76.04 39.46, 9.54 38.17 C4.72 39.61, 3.41 35.64, 0 28.62 C-2.89 27, 0.62 17.57, 0 9.54 C-1.88 -0.01, 6.09 2.02, 9.54 0" stroke="none" stroke-width="0" fill="#ffec99"></path><path d="M9.54 0 C105.3 0.71, 199.55 0.03, 263.55 0 M9.54 0 C99.09 -1.39, 189.62 -1.69, 263.55 0 M263.55 0 C271.59 1.2, 274.19 3.23, 273.09 9.54 M263.55 0 C267.81 -0.86, 275.37 1.18, 273.09 9.54 M273.09 9.54 C271.11 13.28, 271.81 19.09, 273.09 28.62 M273.09 9.54 C272.51 13.9, 273.47 18.23, 273.09 28.62 M273.09 28.62 C272.53 33.85, 269.43 36.61, 263.55 38.17 M273.09 28.62 C272.71 36.29, 270.47 39.46, 263.55 38.17 M263.55 38.17 C205.53 39.92, 146.53 39.8, 9.54 38.17 M263.55 38.17 C186.53 37.17, 107.68 36.62, 9.54 38.17 M9.54 38.17 C3.84 38.61, -1.12 34.98, 0 28.62 M9.54 38.17 C1.77 36.99, -1.22 34.8, 0 28.62 M0 28.62 C-1.54 20.85, -0.98 13.46, 0 9.54 M0 28.62 C0.88 25.09, 0.91 21.12, 0 9.54 M0 9.54 C0.71 2.97, 2.14 -1.6, 9.54 0 M0 9.54 C-0.97 1.86, 3.65 1.53, 9.54 0" stroke="#1e1e1e" stroke-width="2" fill="none"></path></g><g transform="translate(176.27392578125 149.52442932128906) rotate(0 29.28997802734375 12.5)"><text x="29.28997802734375" y="17.52" font-family="Virgil, Segoe UI Emoji" font-size="20px" fill="#1e1e1e" text-anchor="middle" style="white-space: pre;" direction="ltr" dominant-baseline="alphabetic">Linear</text></g><g stroke-linecap="round" transform="translate(70.53521728515625 78.39498901367188) rotate(0 136.5433349609375 19.08331298828125)"><path d="M9.54 0 C84.83 -1.39, 162.91 -0.58, 263.55 0 C267 1.27, 275.08 1.98, 273.09 9.54 C272 13.95, 271.44 20.74, 273.09 28.62 C276.37 35.63, 273.21 36.17, 263.55 38.17 C162.84 33.91, 60.26 38.1, 9.54 38.17 C5.32 38.87, -1.56 36.84, 0 28.62 C-0.85 18.93, 2.96 12.64, 0 9.54 C1.52 4.65, 4.87 1.28, 9.54 0" stroke="none" stroke-width="0" fill="#ffec99"></path><path d="M9.54 0 C102.81 -0.32, 197.31 -1.15, 263.55 0 M9.54 0 C95.38 -0.3, 181.89 -1.07, 263.55 0 M263.55 0 C271.57 0.87, 272.83 2.87, 273.09 9.54 M263.55 0 C271.19 2.28, 275.35 1.33, 273.09 9.54 M273.09 9.54 C272.31 17.36, 272.86 21.7, 273.09 28.62 M273.09 9.54 C273.41 15.48, 272.85 19.99, 273.09 28.62 M273.09 28.62 C272.08 33.19, 271 39.86, 263.55 38.17 M273.09 28.62 C274.04 33, 268.32 38.28, 263.55 38.17 M263.55 38.17 C212.13 39.14, 159.58 36.63, 9.54 38.17 M263.55 38.17 C199.39 38.29, 134.03 39.03, 9.54 38.17 M9.54 38.17 C3.96 38.74, 0 34.28, 0 28.62 M9.54 38.17 C4.64 40.35, -1.45 35.6, 0 28.62 M0 28.62 C0.73 23.19, 0.49 19.6, 0 9.54 M0 28.62 C0.34 21.74, 0.16 14.84, 0 9.54 M0 9.54 C0.82 4.24, 2.79 -0.03, 9.54 0 M0 9.54 C-0.64 1.12, 5.13 -1.78, 9.54 0" stroke="#1e1e1e" stroke-width="2" fill="none"></path></g><g transform="translate(166.3285903930664 84.97830200195312) rotate(0 40.749961853027344 12.5)"><text x="40.749961853027344" y="17.52" font-family="Virgil, Segoe UI Emoji" font-size="20px" fill="#1e1e1e" text-anchor="middle" style="white-space: pre;" direction="ltr" dominant-baseline="alphabetic">Softmax</text></g><g stroke-linecap="round"><g transform="translate(205.71752082250646 227.3797149658203) rotate(0 0.030131948164694222 -22.48602294921875)"><path d="M-0.46 0.13 C-0.59 -7.31, -0.48 -37.23, -0.45 -44.74 M0.31 -0.28 C0.31 -7.88, 0.44 -38.24, 0.53 -45.59" stroke="#1e1e1e" stroke-width="2" fill="none"></path></g><g transform="translate(205.71752082250646 227.3797149658203) rotate(0 0.030131948164694222 -22.48602294921875)"><path d="M8.06 -24.4 C5.61 -32.95, 3.09 -40.25, 0.53 -45.59 M8.06 -24.4 C5.99 -30.79, 3.77 -37.41, 0.53 -45.59" stroke="#1e1e1e" stroke-width="2" fill="none"></path></g><g transform="translate(205.71752082250646 227.3797149658203) rotate(0 0.030131948164694222 -22.48602294921875)"><path d="M-7.32 -24.52 C-4.26 -32.96, -1.26 -40.22, 0.53 -45.59 M-7.32 -24.52 C-4.8 -30.9, -2.45 -37.48, 0.53 -45.59" stroke="#1e1e1e" stroke-width="2" fill="none"></path></g></g><mask></mask><g stroke-linecap="round"><g transform="translate(206.2182499335945 141.40565490722656) rotate(0 -0.09282858007850336 -13.243240356445312)"><path d="M0.21 0.25 C0.22 -4.17, -0.22 -22.66, -0.22 -27.03 M-0.35 -0.1 C-0.39 -4.43, -0.74 -22.17, -0.66 -26.61" stroke="#1e1e1e" stroke-width="2" fill="none"></path></g><g transform="translate(206.2182499335945 141.40565490722656) rotate(0 -0.09282858007850336 -13.243240356445312)"><path d="M3.91 -14.18 C3.11 -17.34, 1.01 -19.92, -0.66 -26.61 M3.91 -14.18 C2.12 -18.76, 0 -23.66, -0.66 -26.61" stroke="#1e1e1e" stroke-width="2" fill="none"></path></g><g transform="translate(206.2182499335945 141.40565490722656) rotate(0 -0.09282858007850336 -13.243240356445312)"><path d="M-5.15 -14.15 C-3.66 -17.34, -3.48 -19.92, -0.66 -26.61 M-5.15 -14.15 C-3.38 -18.76, -1.93 -23.67, -0.66 -26.61" stroke="#1e1e1e" stroke-width="2" fill="none"></path></g></g><mask></mask><g stroke-linecap="round"><g transform="translate(206.47764404082614 74.95622253417969) rotate(0 -0.40693612627296716 -12.215438842773438)"><path d="M0.29 0.49 C-0.01 -3.58, -1.19 -20.48, -1.29 -24.65 M-0.22 0.27 C-0.4 -3.7, -0.27 -20.01, -0.3 -24.07" stroke="#1e1e1e" stroke-width="2" fill="none"></path></g><g transform="translate(206.47764404082614 74.95622253417969) rotate(0 -0.40693612627296716 -12.215438842773438)"><path d="M3.87 -12.58 C2.81 -17.6, 0.38 -20.98, -0.3 -24.07 M3.87 -12.58 C2.71 -15.41, 1.73 -18.73, -0.3 -24.07" stroke="#1e1e1e" stroke-width="2" fill="none"></path></g><g transform="translate(206.47764404082614 74.95622253417969) rotate(0 -0.40693612627296716 -12.215438842773438)"><path d="M-4.49 -12.59 C-2.28 -17.62, -1.42 -21.01, -0.3 -24.07 M-4.49 -12.59 C-3.37 -15.43, -2.06 -18.76, -0.3 -24.07" stroke="#1e1e1e" stroke-width="2" fill="none"></path></g></g><mask></mask><g stroke-linecap="round" transform="translate(72.09051513671875 10) rotate(0 136.5433349609375 19.08331298828125)"><path d="M9.54 0 C99 3.07, 184.23 1.6, 263.55 0 C271.9 -1.53, 271.87 3.13, 273.09 9.54 C275.74 15.81, 271.67 18.88, 273.09 28.62 C275.83 35.9, 273.42 38.88, 263.55 38.17 C181.31 36.23, 97.31 37.14, 9.54 38.17 C5.32 37.59, 0.24 32.22, 0 28.62 C-0.04 25.9, 2.02 17.74, 0 9.54 C0.67 3.62, 3.81 3.45, 9.54 0" stroke="none" stroke-width="0" fill="#ffc9c9"></path><path d="M9.54 0 C75.54 0.46, 142.82 -0.44, 263.55 0 M9.54 0 C73.66 -1.93, 137.61 -1.58, 263.55 0 M263.55 0 C271.04 0.56, 273.6 2.43, 273.09 9.54 M263.55 0 C271.41 1.53, 273.06 4.19, 273.09 9.54 M273.09 9.54 C274.13 15.75, 272.25 22.11, 273.09 28.62 M273.09 9.54 C273.34 15.75, 272.1 20.89, 273.09 28.62 M273.09 28.62 C271.66 35.88, 271.6 36.33, 263.55 38.17 M273.09 28.62 C275.14 33.2, 268.53 36.54, 263.55 38.17 M263.55 38.17 C177.92 35.49, 91.03 37.83, 9.54 38.17 M263.55 38.17 C186.31 36.85, 109.84 37.7, 9.54 38.17 M9.54 38.17 C2.51 39.76, 0.06 33.28, 0 28.62 M9.54 38.17 C3.73 37.28, -1.65 36.66, 0 28.62 M0 28.62 C-0.58 21.99, -0.63 17.39, 0 9.54 M0 28.62 C-0.37 23.69, 0.7 17.46, 0 9.54 M0 9.54 C-1.09 1.57, 2.69 -0.76, 9.54 0 M0 9.54 C1.37 2.74, 1.4 -1.94, 9.54 0" stroke="#1e1e1e" stroke-width="2" fill="none"></path></g><g transform="translate(119.83394622802734 16.58331298828125) rotate(0 88.7999038696289 12.5)"><text x="88.7999038696289" y="17.52" font-family="Virgil, Segoe UI Emoji" font-size="20px" fill="#1e1e1e" text-anchor="middle" style="white-space: pre;" direction="ltr" dominant-baseline="alphabetic">Output probability</text></g></svg>