<svg version="1.1" xmlns="http://www.w3.org/2000/svg" viewBox="0 0 1092.9713897859874 492.43677268364524" width="2185.942779571975" height="984.8735453672905">
  <!-- svg-source:excalidraw -->
  
  <defs>
    <style class="style-fonts">
      @font-face {
        font-family: "Virgil";
        src: url("https://excalidraw.com/Virgil.woff2");
      }
      @font-face {
        font-family: "Cascadia";
        src: url("https://excalidraw.com/Cascadia.woff2");
      }
      @font-face {
        font-family: "Assistant";
        src: url("https://excalidraw.com/Assistant-Regular.woff2");
      }
    </style>
    
  </defs>
  <rect x="0" y="0" width="1092.9713897859874" height="492.43677268364524" fill="#ffffff"></rect><g stroke-linecap="round" transform="translate(326.1596349420588 430.8568160087033) rotate(0 242.52087008160424 25.789978337470984)"><path d="M12.89 0 C192.48 1.85, 370.26 1.66, 472.15 0 C479.53 1.81, 482.88 6.73, 485.04 12.89 C483 19.35, 482.26 29.1, 485.04 38.68 C488.45 47.55, 482.73 53.25, 472.15 51.58 C373.33 49.43, 276.01 49.9, 12.89 51.58 C2.25 49.63, 2.23 48.1, 0 38.68 C-2.03 28.83, 1.84 25.03, 0 12.89 C-1.52 5.29, 4.61 3.09, 12.89 0" stroke="none" stroke-width="0" fill="#ffc9c9"></path><path d="M12.89 0 C147.39 0.05, 281.29 -1.18, 472.15 0 M12.89 0 C184.5 0.29, 356.08 0.66, 472.15 0 M472.15 0 C478.79 -1.52, 485.08 5.8, 485.04 12.89 M472.15 0 C479.13 -1.73, 487.07 3.75, 485.04 12.89 M485.04 12.89 C486.63 22.04, 483.07 32.42, 485.04 38.68 M485.04 12.89 C485.94 18.68, 485 23.1, 485.04 38.68 M485.04 38.68 C484.77 47.81, 482.68 51.87, 472.15 51.58 M485.04 38.68 C484.67 45.87, 482.68 50.48, 472.15 51.58 M472.15 51.58 C300.47 50.35, 130.46 50.02, 12.89 51.58 M472.15 51.58 C351.43 52.63, 231.06 52.61, 12.89 51.58 M12.89 51.58 C4.38 50.07, 1.81 47.87, 0 38.68 M12.89 51.58 C6.12 53.69, -1.84 48.21, 0 38.68 M0 38.68 C1.03 30.43, 1.72 23.58, 0 12.89 M0 38.68 C0.81 31.49, -0.2 23.05, 0 12.89 M0 12.89 C-0.37 4.76, 2.34 0.4, 12.89 0 M0 12.89 C1.25 3.23, 3.75 1.24, 12.89 0" stroke="#1e1e1e" stroke-width="2" fill="none"></path></g><g transform="translate(515.5805446965146 444.14679434617426) rotate(0 53.09996032714844 12.5)"><text x="53.09996032714844" y="17.52" font-family="Virgil, Segoe UI Emoji" font-size="20px" fill="#1e1e1e" text-anchor="middle" style="white-space: pre;" direction="ltr" dominant-baseline="alphabetic">100 tokens</text></g><g stroke-linecap="round" transform="translate(89.9110933758983 53.338854040347826) rotate(0 116.29608153353485 113.18178556827152)"><path d="M32 0 C68.49 -1.82, 101.71 -3.67, 200.59 0 C225.2 1.83, 229.17 12.89, 232.59 32 C227.51 79.21, 228.44 122.68, 232.59 194.36 C234.43 217.88, 222.95 226.8, 200.59 226.36 C150.47 223.47, 107.96 226.33, 32 226.36 C10.25 229.7, -1.76 214.26, 0 194.36 C3.65 142.22, 3.71 93.99, 0 32 C-0.07 12.33, 9.22 0.78, 32 0" stroke="none" stroke-width="0" fill="#b2f2bb"></path><path d="M32 0 C69.01 1.3, 108.17 -0.44, 200.59 0 M32 0 C86.34 0.39, 140.53 0.31, 200.59 0 M200.59 0 C222.87 -1.68, 233.31 11.76, 232.59 32 M200.59 0 C219.94 -1.85, 233.54 8.38, 232.59 32 M232.59 32 C232.73 73.08, 233.7 114.43, 232.59 194.36 M232.59 32 C231.25 75.81, 231.78 120.71, 232.59 194.36 M232.59 194.36 C231.58 217.22, 220.26 227.24, 200.59 226.36 M232.59 194.36 C230.97 216.03, 221.36 227.87, 200.59 226.36 M200.59 226.36 C149.24 226.88, 103.15 226.38, 32 226.36 M200.59 226.36 C138.9 225.43, 78.04 225.14, 32 226.36 M32 226.36 C11.74 225.33, 0.39 217.43, 0 194.36 M32 226.36 C12.88 227.14, 0.53 216.35, 0 194.36 M0 194.36 C2.14 134.01, 3.07 77.4, 0 32 M0 194.36 C0.38 148.39, 0.29 100.61, 0 32 M0 32 C-0.44 9.71, 11.3 -1.1, 32 0 M0 32 C-1.24 8.52, 9.17 -2.02, 32 0" stroke="#1e1e1e" stroke-width="2" fill="none"></path></g><g transform="translate(104.44726432593711 116.52063960861938) rotate(0 101.7599105834961 50)"><text x="101.7599105834961" y="17.52" font-family="Virgil, Segoe UI Emoji" font-size="20px" fill="#1e1e1e" text-anchor="middle" style="white-space: pre;" direction="ltr" dominant-baseline="alphabetic">Expert 1</text><text x="101.7599105834961" y="42.519999999999996" font-family="Virgil, Segoe UI Emoji" font-size="20px" fill="#1e1e1e" text-anchor="middle" style="white-space: pre;" direction="ltr" dominant-baseline="alphabetic">Capacity = 32</text><text x="101.7599105834961" y="67.52" font-family="Virgil, Segoe UI Emoji" font-size="20px" fill="#1e1e1e" text-anchor="middle" style="white-space: pre;" direction="ltr" dominant-baseline="alphabetic">Processed tokens = </text><text x="101.7599105834961" y="92.52" font-family="Virgil, Segoe UI Emoji" font-size="20px" fill="#1e1e1e" text-anchor="middle" style="white-space: pre;" direction="ltr" dominant-baseline="alphabetic">32</text></g><g stroke-linecap="round" transform="translate(341.20171375151415 55.13870867937732) rotate(0 116.29608153353485 113.18178556827152)"><path d="M32 0 C80.62 -1.91, 136.7 2.63, 200.59 0 C220.68 0.52, 235.06 10.88, 232.59 32 C233.04 80.07, 230.48 129.84, 232.59 194.36 C229.18 218.13, 220.25 229.73, 200.59 226.36 C144.11 227.59, 87.98 229.91, 32 226.36 C9.22 228.93, 3.18 215.52, 0 194.36 C4.05 164.78, -0.37 129.41, 0 32 C-0.54 11.01, 9.5 3.22, 32 0" stroke="none" stroke-width="0" fill="#b2f2bb"></path><path d="M32 0 C96.9 -0.45, 160.09 0, 200.59 0 M32 0 C91.43 -0.5, 149.61 -0.8, 200.59 0 M200.59 0 C222.11 0.58, 231.4 11.68, 232.59 32 M200.59 0 C220.18 1.31, 233.95 8.76, 232.59 32 M232.59 32 C235.43 70.94, 231.94 107.27, 232.59 194.36 M232.59 32 C232.61 94.69, 232.26 156.25, 232.59 194.36 M232.59 194.36 C232.63 214.45, 220.91 227.26, 200.59 226.36 M232.59 194.36 C234.78 217.14, 221.94 228.33, 200.59 226.36 M200.59 226.36 C160.85 225.32, 119.92 226.88, 32 226.36 M200.59 226.36 C139.52 225.8, 79.61 226.07, 32 226.36 M32 226.36 C11.9 224.54, -0.87 215.26, 0 194.36 M32 226.36 C11.81 226.19, 0.92 215.62, 0 194.36 M0 194.36 C-1.1 153.06, 1.7 110.49, 0 32 M0 194.36 C0.9 132.74, 0.85 68.4, 0 32 M0 32 C-0.57 10.27, 11.91 -0.86, 32 0 M0 32 C0.72 10.6, 10.39 0.48, 32 0" stroke="#1e1e1e" stroke-width="2" fill="none"></path></g><g transform="translate(355.73788470155296 118.32049424764887) rotate(0 101.7599105834961 50)"><text x="101.7599105834961" y="17.52" font-family="Virgil, Segoe UI Emoji" font-size="20px" fill="#1e1e1e" text-anchor="middle" style="white-space: pre;" direction="ltr" dominant-baseline="alphabetic">Expert 2</text><text x="101.7599105834961" y="42.519999999999996" font-family="Virgil, Segoe UI Emoji" font-size="20px" fill="#1e1e1e" text-anchor="middle" style="white-space: pre;" direction="ltr" dominant-baseline="alphabetic">Capacity = 32</text><text x="101.7599105834961" y="67.52" font-family="Virgil, Segoe UI Emoji" font-size="20px" fill="#1e1e1e" text-anchor="middle" style="white-space: pre;" direction="ltr" dominant-baseline="alphabetic">Processed tokens = </text><text x="101.7599105834961" y="92.52" font-family="Virgil, Segoe UI Emoji" font-size="20px" fill="#1e1e1e" text-anchor="middle" style="white-space: pre;" direction="ltr" dominant-baseline="alphabetic">26</text></g><g stroke-linecap="round" transform="translate(594.2426764408415 53.71067779193231) rotate(0 116.29608153353479 113.18178556827152)"><path d="M32 0 C72.6 0.92, 116.22 -1.39, 200.59 0 C222.4 -3.05, 236.18 11.96, 232.59 32 C229.74 84.64, 233.11 132.54, 232.59 194.36 C233.92 212.36, 223.53 227.11, 200.59 226.36 C166.26 223.11, 125.43 225.37, 32 226.36 C8.47 224.08, 2.47 212.21, 0 194.36 C-1.09 156.77, 0.46 119.23, 0 32 C2.69 12.42, 8.6 2.12, 32 0" stroke="none" stroke-width="0" fill="#b2f2bb"></path><path d="M32 0 C85.04 0.56, 138.52 -0.39, 200.59 0 M32 0 C77.91 0.63, 125.25 0.89, 200.59 0 M200.59 0 C222.73 1.58, 232.72 11.15, 232.59 32 M200.59 0 C222.59 1.33, 234.73 9.74, 232.59 32 M232.59 32 C232.08 90.92, 235.86 153.73, 232.59 194.36 M232.59 32 C231.37 96.02, 231.2 160.75, 232.59 194.36 M232.59 194.36 C233.58 215.01, 223.58 224.65, 200.59 226.36 M232.59 194.36 C234.46 213.73, 224.05 225.72, 200.59 226.36 M200.59 226.36 C136.8 225.65, 73.9 227.1, 32 226.36 M200.59 226.36 C140.63 226.62, 79.62 226.43, 32 226.36 M32 226.36 C11.19 227.79, 0.91 213.93, 0 194.36 M32 226.36 C10.49 228.11, 1.2 213.86, 0 194.36 M0 194.36 C1.93 155.35, 0.43 115.43, 0 32 M0 194.36 C0.55 159.17, 0.81 121.9, 0 32 M0 32 C0.31 10.07, 11.81 1.22, 32 0 M0 32 C1.57 11.37, 11.72 -2.02, 32 0" stroke="#1e1e1e" stroke-width="2" fill="none"></path></g><g transform="translate(608.7788473908802 116.8924633602038) rotate(0 101.7599105834961 50)"><text x="101.7599105834961" y="17.52" font-family="Virgil, Segoe UI Emoji" font-size="20px" fill="#1e1e1e" text-anchor="middle" style="white-space: pre;" direction="ltr" dominant-baseline="alphabetic">Expert 3</text><text x="101.7599105834961" y="42.519999999999996" font-family="Virgil, Segoe UI Emoji" font-size="20px" fill="#1e1e1e" text-anchor="middle" style="white-space: pre;" direction="ltr" dominant-baseline="alphabetic">Capacity = 32</text><text x="101.7599105834961" y="67.52" font-family="Virgil, Segoe UI Emoji" font-size="20px" fill="#1e1e1e" text-anchor="middle" style="white-space: pre;" direction="ltr" dominant-baseline="alphabetic">Processed tokens = </text><text x="101.7599105834961" y="92.52" font-family="Virgil, Segoe UI Emoji" font-size="20px" fill="#1e1e1e" text-anchor="middle" style="white-space: pre;" direction="ltr" dominant-baseline="alphabetic">10</text></g><g stroke-linecap="round" transform="translate(848.9577667825083 51.70745849633488) rotate(0 116.29608153353479 113.18178556827152)"><path d="M32 0 C100.23 2.93, 163.71 -3.42, 200.59 0 C220.39 2.52, 230 12.22, 232.59 32 C235.18 82.82, 237.24 128.2, 232.59 194.36 C232.87 219.05, 223.59 225.76, 200.59 226.36 C156.07 221.83, 114.77 220.84, 32 226.36 C10.65 229.09, 2.69 214.38, 0 194.36 C2.35 132.15, -0.5 74.53, 0 32 C2.09 11.36, 11.32 2.78, 32 0" stroke="none" stroke-width="0" fill="#b2f2bb"></path><path d="M32 0 C67.94 0.3, 101.22 -2.08, 200.59 0 M32 0 C86.41 2.51, 138.99 2.35, 200.59 0 M200.59 0 C219.98 1.7, 232.68 10.82, 232.59 32 M200.59 0 C222.6 2.24, 230.5 8.69, 232.59 32 M232.59 32 C233.93 81.83, 235.06 133.12, 232.59 194.36 M232.59 32 C232.58 86.68, 232.13 141.29, 232.59 194.36 M232.59 194.36 C232.19 215.75, 222.56 224.92, 200.59 226.36 M232.59 194.36 C231.76 213.62, 222.39 228.3, 200.59 226.36 M200.59 226.36 C167.97 225.69, 129.85 227.99, 32 226.36 M200.59 226.36 C161.67 226.06, 122.94 224.8, 32 226.36 M32 226.36 C11.68 227.18, 1.07 217.68, 0 194.36 M32 226.36 C12.94 227.81, 0.37 214.97, 0 194.36 M0 194.36 C-1.22 159.13, -2.24 122.01, 0 32 M0 194.36 C0.64 149.25, 1.34 106.57, 0 32 M0 32 C-1.6 10.43, 11.55 -1.39, 32 0 M0 32 C0.01 9.75, 12.52 -1.4, 32 0" stroke="#1e1e1e" stroke-width="2" fill="none"></path></g><g transform="translate(857.3139450567658 127.38924406460637) rotate(0 107.93990325927734 37.5)"><text x="107.93990325927734" y="17.52" font-family="Virgil, Segoe UI Emoji" font-size="20px" fill="#1e1e1e" text-anchor="middle" style="white-space: pre;" direction="ltr" dominant-baseline="alphabetic">Expert 4</text><text x="107.93990325927734" y="42.519999999999996" font-family="Virgil, Segoe UI Emoji" font-size="20px" fill="#1e1e1e" text-anchor="middle" style="white-space: pre;" direction="ltr" dominant-baseline="alphabetic">Capacity = 32</text><text x="107.93990325927734" y="67.52" font-family="Virgil, Segoe UI Emoji" font-size="20px" fill="#1e1e1e" text-anchor="middle" style="white-space: pre;" direction="ltr" dominant-baseline="alphabetic">Processed tokens = 5</text></g><g transform="translate(10 355.440713526143) rotate(0 113.47990417480469 50)"><text x="0" y="17.52" font-family="Virgil, Segoe UI Emoji" font-size="20px" fill="#1e1e1e" text-anchor="start" style="white-space: pre;" direction="ltr" dominant-baseline="alphabetic">N = Number of tokens</text><text x="0" y="42.519999999999996" font-family="Virgil, Segoe UI Emoji" font-size="20px" fill="#1e1e1e" text-anchor="start" style="white-space: pre;" direction="ltr" dominant-baseline="alphabetic">E = Number of experts</text><text x="0" y="67.52" font-family="Virgil, Segoe UI Emoji" font-size="20px" fill="#1e1e1e" text-anchor="start" style="white-space: pre;" direction="ltr" dominant-baseline="alphabetic">CF = Capacity Factor</text><text x="0" y="92.52" font-family="Virgil, Segoe UI Emoji" font-size="20px" fill="#1e1e1e" text-anchor="start" style="white-space: pre;" direction="ltr" dominant-baseline="alphabetic">C = (N/E) * CF</text></g><g stroke-linecap="round"><g transform="translate(559.9658753826043 433.00664703345376) rotate(0 -176.33356369532748 -76.18092770053076)"><path d="M-1.07 1.16 C-60.03 -23.96, -295.06 -126.09, -353.54 -151.53 M0.57 0.72 C-58.03 -24.65, -292.46 -127.54, -351.29 -153.21" stroke="#1e1e1e" stroke-width="2" fill="none"></path></g><g transform="translate(559.9658753826043 433.00664703345376) rotate(0 -176.33356369532748 -76.18092770053076)"><path d="M-326.34 -151.63 C-332.38 -153.82, -340.9 -151.73, -351.29 -153.21 M-326.34 -151.63 C-335.54 -152.12, -344.55 -152.05, -351.29 -153.21" stroke="#1e1e1e" stroke-width="2" fill="none"></path></g><g transform="translate(559.9658753826043 433.00664703345376) rotate(0 -176.33356369532748 -76.18092770053076)"><path d="M-333.2 -135.96 C-336.94 -143.1, -343.26 -146.02, -351.29 -153.21 M-333.2 -135.96 C-339.94 -142.34, -346.38 -148.16, -351.29 -153.21" stroke="#1e1e1e" stroke-width="2" fill="none"></path></g></g><mask></mask><g stroke-linecap="round"><g transform="translate(562.683235681498 431.36508116395305) rotate(0 -50.2218206169822 -74.29083758104028)"><path d="M0.43 0.65 C-16.02 -24.32, -82.85 -124.69, -99.58 -149.72 M-0.81 -0.05 C-17.25 -24.94, -83.47 -124, -100.07 -148.78" stroke="#1e1e1e" stroke-width="2" fill="none"></path></g><g transform="translate(562.683235681498 431.36508116395305) rotate(0 -50.2218206169822 -74.29083758104028)"><path d="M-79.9 -134.01 C-83.33 -135.79, -90.81 -139.65, -100.07 -148.78 M-79.9 -134.01 C-85 -136.49, -88.7 -141.39, -100.07 -148.78" stroke="#1e1e1e" stroke-width="2" fill="none"></path></g><g transform="translate(562.683235681498 431.36508116395305) rotate(0 -50.2218206169822 -74.29083758104028)"><path d="M-94.12 -124.5 C-94.39 -128.45, -98.7 -134.43, -100.07 -148.78 M-94.12 -124.5 C-96.15 -129.11, -96.73 -136.09, -100.07 -148.78" stroke="#1e1e1e" stroke-width="2" fill="none"></path></g></g><mask></mask><g stroke-linecap="round"><g transform="translate(565.7588592979926 431.419908844567) rotate(0 69.0477627462542 -73.81329266821066)"><path d="M-0.53 0.89 C22.31 -24.06, 114.43 -124.13, 137.49 -148.75 M1.39 0.31 C24.59 -24.61, 117.29 -122.96, 139.88 -147.8" stroke="#1e1e1e" stroke-width="2" fill="none"></path></g><g transform="translate(565.7588592979926 431.419908844567) rotate(0 69.0477627462542 -73.81329266821066)"><path d="M130.16 -124.76 C134.72 -133.46, 134.64 -140.63, 139.88 -147.8 M130.16 -124.76 C134.01 -132.82, 137.32 -142.7, 139.88 -147.8" stroke="#1e1e1e" stroke-width="2" fill="none"></path></g><g transform="translate(565.7588592979926 431.419908844567) rotate(0 69.0477627462542 -73.81329266821066)"><path d="M117.63 -136.4 C126.48 -141.14, 130.61 -144.4, 139.88 -147.8 M117.63 -136.4 C126.01 -140.16, 133.95 -145.75, 139.88 -147.8" stroke="#1e1e1e" stroke-width="2" fill="none"></path></g></g><mask></mask><g stroke-linecap="round"><g transform="translate(563.26608322366 431.27936582815335) rotate(0 198.4848674336314 -74.89883889117849)"><path d="M-0.42 -0.71 C65.78 -25.54, 331.68 -124.63, 397.87 -149.41 M1.56 1.54 C67.63 -23.63, 331.68 -125.82, 397.39 -151.33" stroke="#1e1e1e" stroke-width="2" fill="none"></path></g><g transform="translate(563.26608322366 431.27936582815335) rotate(0 198.4848674336314 -74.89883889117849)"><path d="M378.58 -134.87 C384.11 -139.12, 392.58 -146.85, 397.39 -151.33 M378.58 -134.87 C384.74 -140.41, 392.05 -145.68, 397.39 -151.33" stroke="#1e1e1e" stroke-width="2" fill="none"></path></g><g transform="translate(563.26608322366 431.27936582815335) rotate(0 198.4848674336314 -74.89883889117849)"><path d="M372.4 -150.82 C380.06 -149.41, 390.71 -151.51, 397.39 -151.33 M372.4 -150.82 C380.58 -151.03, 389.94 -151.01, 397.39 -151.33" stroke="#1e1e1e" stroke-width="2" fill="none"></path></g></g><mask></mask><g stroke-linecap="round" transform="translate(88.72037008317216 53.442440688836086) rotate(0 118.02775732392286 114.727988941376)"><path d="M7.86 8.16 C7.86 8.16, 7.86 8.16, 7.86 8.16 M7.86 8.16 C7.86 8.16, 7.86 8.16, 7.86 8.16 M0.91 40.54 C10.86 31.83, 20.73 17.58, 36.34 -0.21 M0.91 40.54 C10.16 29.73, 18.19 21.16, 36.34 -0.21 M1.18 64.62 C14.89 51.85, 24.8 35.52, 57.6 -0.28 M1.18 64.62 C21.05 40.65, 41.85 17.44, 57.6 -0.28 M0.79 89.46 C18.3 70.06, 35.28 50.96, 78.2 0.41 M0.79 89.46 C19.43 68.85, 38.66 47.33, 78.2 0.41 M1.05 113.54 C30.28 74.68, 61.88 39.39, 99.46 0.34 M1.05 113.54 C23.08 87.32, 44.5 62.58, 99.46 0.34 M0.66 138.38 C42.36 89.1, 88.06 38.78, 120.72 0.27 M0.66 138.38 C48.64 84.53, 94.83 30.04, 120.72 0.27 M0.93 162.46 C43.24 115.23, 81.77 66.64, 141.98 0.2 M0.93 162.46 C40.49 120.15, 78.08 77.07, 141.98 0.2 M0.54 187.3 C42.83 141.18, 82.55 91.1, 163.24 0.13 M0.54 187.3 C62.78 113.59, 125.41 39.92, 163.24 0.13 M2.12 209.87 C47.56 159.81, 91.57 109.94, 184.5 0.06 M2.12 209.87 C73.1 127.73, 143.87 44.9, 184.5 0.06 M11.57 223.39 C81.61 142.92, 149.93 62.79, 205.76 -0.01 M11.57 223.39 C75.22 149.81, 140 75.22, 205.76 -0.01 M27.58 229.35 C91.78 158.72, 151.73 85.86, 222.43 5.21 M27.58 229.35 C78.17 172.81, 128.04 114.73, 222.43 5.21 M48.19 230.04 C108.79 159.91, 168.14 89.2, 233.85 16.46 M48.19 230.04 C96.58 171.27, 145.38 114.3, 233.85 16.46 M69.45 229.97 C121.09 169.65, 173.01 106.72, 236.09 38.27 M69.45 229.97 C117.61 174.6, 166.51 118.08, 236.09 38.27 M90.71 229.9 C128.37 182.87, 168.33 138.42, 236.35 62.36 M90.71 229.9 C148.27 162.81, 205.72 97.14, 236.35 62.36 M111.97 229.83 C144.98 193.54, 178.59 153.15, 235.96 87.19 M111.97 229.83 C146.8 188.12, 183.79 146.86, 235.96 87.19 M133.23 229.76 C168.82 190.76, 203.37 149.14, 236.23 111.27 M133.23 229.76 C161.1 197.69, 190.81 162.81, 236.23 111.27 M154.49 229.69 C170.28 209.86, 191.19 189.12, 235.84 136.11 M154.49 229.69 C187.3 191.76, 219.91 154.73, 235.84 136.11 M175.75 229.63 C197.29 209.47, 215.16 185.34, 236.1 160.19 M175.75 229.63 C192.31 210.88, 207.82 191.23, 236.1 160.19 M197.01 229.56 C208.27 217.38, 219.91 204.46, 236.37 184.27 M197.01 229.56 C209.22 215.15, 223.38 199.63, 236.37 184.27 M220.89 226.47 C225.05 222.63, 225.61 220.5, 234.67 210.62 M220.89 226.47 C223.88 221.84, 226.85 219.11, 234.67 210.62" stroke="#ffc9c9" stroke-width="2" fill="none"></path><path d="M32 0 C72.66 -1.6, 115.47 -1.14, 204.06 0 M32 0 C79.4 -1.34, 126.37 -0.85, 204.06 0 M204.06 0 C227.23 0.83, 235.72 10.49, 236.06 32 M204.06 0 C225.25 2.3, 234.58 11.46, 236.06 32 M236.06 32 C236.86 95.56, 238.13 156.99, 236.06 197.46 M236.06 32 C237.47 95.12, 236.52 157.75, 236.06 197.46 M236.06 197.46 C235.26 219.27, 223.55 230.45, 204.06 229.46 M236.06 197.46 C235.87 217.09, 225.66 229.95, 204.06 229.46 M204.06 229.46 C142.71 228.69, 81.47 228.27, 32 229.46 M204.06 229.46 C156.35 231.62, 107.11 231.38, 32 229.46 M32 229.46 C12.09 231.22, 1.25 219.21, 0 197.46 M32 229.46 C11.52 230.17, 1.28 216.75, 0 197.46 M0 197.46 C-1.24 134.76, -1.19 68.97, 0 32 M0 197.46 C-0.52 153.77, -1.26 108.88, 0 32 M0 32 C1.17 9.78, 9.17 -0.55, 32 0 M0 32 C1.73 10.68, 8.52 -0.36, 32 0" stroke="transparent" stroke-width="4" fill="none"></path></g><g stroke-linecap="round" transform="translate(340.2613143960043 76.36491040359431) rotate(0 118.02775732392286 100.58018727060835)"><path d="M7.86 8.16 C7.86 8.16, 7.86 8.16, 7.86 8.16 M7.86 8.16 C7.86 8.16, 7.86 8.16, 7.86 8.16 M0.91 40.54 C11.09 29.74, 22.2 15.94, 36.34 -0.21 M0.91 40.54 C14.24 25.95, 28.7 9.08, 36.34 -0.21 M1.18 64.62 C20.43 42.2, 41.34 16.41, 57.6 -0.28 M1.18 64.62 C13.82 50.39, 27.96 34.23, 57.6 -0.28 M0.79 89.46 C25.64 63.49, 47.91 34.44, 78.2 0.41 M0.79 89.46 C25.97 59.12, 49.88 31.45, 78.2 0.41 M1.05 113.54 C25.3 81.84, 54.84 55.58, 99.46 0.34 M1.05 113.54 C24.41 86.77, 49.89 59.1, 99.46 0.34 M0.66 138.38 C33.32 97.77, 70.37 61.96, 120.72 0.27 M0.66 138.38 C31.73 101.83, 63.27 65.25, 120.72 0.27 M0.93 162.46 C47.64 107.09, 99.24 50.74, 141.98 0.2 M0.93 162.46 C39.16 118.25, 79.14 72.9, 141.98 0.2 M3.17 184.28 C45.28 136.05, 87.03 86.18, 163.24 0.13 M3.17 184.28 C52.31 126.97, 102.6 70.73, 163.24 0.13 M13.93 196.28 C70.91 127.14, 131.18 60.93, 184.5 0.06 M13.93 196.28 C53.23 150.08, 94.09 103.79, 184.5 0.06 M31.25 200.74 C82.4 143.6, 132.13 87.34, 205.76 -0.01 M31.25 200.74 C87.73 136.59, 144.4 70.73, 205.76 -0.01 M51.86 201.43 C88.92 158.31, 126.19 114.67, 222.43 5.21 M51.86 201.43 C113 129.89, 174.2 60.04, 222.43 5.21 M73.12 201.36 C112.95 156.6, 146.93 115.69, 233.85 16.46 M73.12 201.36 C128.79 137.72, 185.78 73.1, 233.85 16.46 M94.38 201.29 C148.9 140.71, 201.8 79.26, 236.09 38.27 M94.38 201.29 C131.32 160.35, 168 115.84, 236.09 38.27 M115.64 201.22 C142.5 168.68, 168.77 137.7, 236.35 62.36 M115.64 201.22 C159.73 150.71, 203.56 100.19, 236.35 62.36 M136.9 201.15 C161.01 172.82, 186.78 141.84, 235.96 87.19 M136.9 201.15 C169.82 164.27, 202.01 127.28, 235.96 87.19 M158.16 201.08 C173.88 182.76, 191.68 160.56, 236.23 111.27 M158.16 201.08 C185.12 169.69, 211.13 139.01, 236.23 111.27 M179.42 201.02 C199.92 180.56, 217.11 159.18, 235.84 136.11 M179.42 201.02 C194.85 182.4, 212.25 164.07, 235.84 136.11 M200.68 200.95 C209.37 190.74, 216.6 183.2, 236.1 160.19 M200.68 200.95 C214.77 184.03, 228.58 168.17, 236.1 160.19" stroke="#ffc9c9" stroke-width="2" fill="none"></path><path d="M32 0 C67.25 -1.9, 101.37 0.02, 204.06 0 M32 0 C73.64 -0.18, 114.49 -0.2, 204.06 0 M204.06 0 C225.98 0.91, 234.9 12.28, 236.06 32 M204.06 0 C224.26 0.52, 233.92 8.9, 236.06 32 M236.06 32 C237.31 82.48, 238.22 133.19, 236.06 169.16 M236.06 32 C235.42 78.17, 236.66 124.92, 236.06 169.16 M236.06 169.16 C236.21 191.55, 225.8 202.39, 204.06 201.16 M236.06 169.16 C236.68 191.95, 223.43 200.3, 204.06 201.16 M204.06 201.16 C149.87 198.52, 99.34 200.93, 32 201.16 M204.06 201.16 C153.02 202.54, 103.67 201.9, 32 201.16 M32 201.16 C9.64 199.19, 1.54 188.75, 0 169.16 M32 201.16 C12.39 200.9, -1.34 190.7, 0 169.16 M0 169.16 C-2.01 134.72, -2.41 103.53, 0 32 M0 169.16 C1.26 124.12, 1.72 78.48, 0 32 M0 32 C0.6 11.58, 10.29 -0.31, 32 0 M0 32 C1.87 11.08, 8.78 -1.7, 32 0" stroke="transparent" stroke-width="4" fill="none"></path></g><g stroke-linecap="round" transform="translate(593.7886111683363 215.67867766211407) rotate(0 111.89664147595363 29.81682035942862)"><path d="M2.11 5.81 C2.11 5.81, 2.11 5.81, 2.11 5.81 M2.11 5.81 C2.11 5.81, 2.11 5.81, 2.11 5.81 M10.9 20.08 C15.34 17.93, 17.88 14.21, 22.71 6.49 M10.9 20.08 C14.06 17.16, 16.39 12.75, 22.71 6.49 M4.61 51.71 C17.28 36.31, 34.04 20.75, 43.97 6.43 M4.61 51.71 C19.55 34.67, 35.18 16.24, 43.97 6.43 M14.72 64.47 C30.77 43.27, 49.61 22.87, 64.58 7.11 M14.72 64.47 C29.9 47.65, 44.41 30.23, 64.58 7.11 M35.98 64.4 C53.25 41.67, 74.23 23.29, 85.84 7.04 M35.98 64.4 C49.16 49.11, 60.74 34.74, 85.84 7.04 M57.24 64.33 C68.48 47.96, 81.61 33.79, 107.1 6.97 M57.24 64.33 C67.59 52.96, 78.89 38.71, 107.1 6.97 M78.5 64.26 C92.87 48.37, 104.01 35.66, 128.36 6.9 M78.5 64.26 C92.15 48.75, 105.45 33.03, 128.36 6.9 M99.1 64.95 C113.59 47.99, 129.82 29.99, 148.96 7.59 M99.1 64.95 C117.41 42.95, 136.14 20.81, 148.96 7.59 M120.36 64.88 C135.83 48, 148.6 31.22, 170.22 7.52 M120.36 64.88 C136.22 45.82, 154.75 24.59, 170.22 7.52 M141.62 64.81 C156.09 45.58, 174.04 27.28, 191.48 7.45 M141.62 64.81 C153.97 48.45, 169.54 33.3, 191.48 7.45 M162.88 64.74 C184.73 41.64, 204.13 15.79, 217.34 2.1 M162.88 64.74 C182.65 41.2, 203.33 18.44, 217.34 2.1 M183.49 65.43 C199.06 48.07, 213.08 31.19, 227.44 14.86 M183.49 65.43 C201.43 45.59, 217.66 25.68, 227.44 14.86 M209.34 60.07 C214.76 53.86, 220.94 45.02, 227.05 39.7 M209.34 60.07 C213.06 55.15, 217.05 52.51, 227.05 39.7" stroke="#ffc9c9" stroke-width="2" fill="none"></path><path d="M14.91 0 C80.69 -0.77, 145.03 -1.31, 208.88 0 M14.91 0 C85.76 -0.21, 155.15 -0.33, 208.88 0 M208.88 0 C220.14 -1.43, 221.91 6.27, 223.79 14.91 M208.88 0 C221.12 -2.26, 222.24 4.6, 223.79 14.91 M223.79 14.91 C221.71 24.34, 224.48 33.8, 223.79 44.73 M223.79 14.91 C224.58 26.29, 224.16 37.71, 223.79 44.73 M223.79 44.73 C223.07 55.23, 216.84 59.47, 208.88 59.63 M223.79 44.73 C226.09 52.53, 217.27 57.8, 208.88 59.63 M208.88 59.63 C158.24 58.59, 108.51 60.63, 14.91 59.63 M208.88 59.63 C149.95 58.41, 91.81 58.74, 14.91 59.63 M14.91 59.63 C5.75 58.42, -0.85 54.96, 0 44.73 M14.91 59.63 C4.41 57.96, 0.6 53.48, 0 44.73 M0 44.73 C-0.2 36.21, -1.68 22.37, 0 14.91 M0 44.73 C-0.18 34.65, 0.71 26.73, 0 14.91 M0 14.91 C1.81 6.33, 5.35 -0.3, 14.91 0 M0 14.91 C0.88 5.71, 3.07 -1.55, 14.91 0" stroke="transparent" stroke-width="4" fill="none"></path></g><g stroke-linecap="round" transform="translate(846.9158751381417 250.4340071831769) rotate(0 118.02775732392286 12.193153003683818)"><path d="M1.62 1.41 C1.62 1.41, 1.62 1.41, 1.62 1.41 M1.62 1.41 C1.62 1.41, 1.62 1.41, 1.62 1.41 M3.86 23.23 C9.33 18.01, 15.6 10.13, 23.54 0.59 M3.86 23.23 C12 14.77, 18.61 6.25, 23.54 0.59 M23.81 24.67 C30.22 18.53, 34.93 11.05, 44.8 0.52 M23.81 24.67 C29.82 18.12, 36.59 9.36, 44.8 0.52 M45.07 24.6 C53.87 15.26, 58.86 6.38, 66.06 0.45 M45.07 24.6 C53.13 14.97, 60.4 6.4, 66.06 0.45 M66.33 24.53 C71.64 20.2, 76.28 12.55, 87.32 0.38 M66.33 24.53 C71.59 19.75, 77.42 12.6, 87.32 0.38 M87.59 24.46 C91.09 18.52, 98.28 14.69, 108.58 0.31 M87.59 24.46 C96.12 15.41, 103.03 6.67, 108.58 0.31 M108.85 24.39 C113.31 18.11, 119.99 11.82, 129.84 0.24 M108.85 24.39 C114.98 16.3, 121.97 9.57, 129.84 0.24 M129.45 25.08 C134.4 16.04, 144.46 10.67, 151.1 0.17 M129.45 25.08 C138.27 15.79, 145.34 6.16, 151.1 0.17 M150.71 25.01 C155.12 18.05, 164.65 10.07, 172.36 0.1 M150.71 25.01 C156.87 17.71, 163.51 11.54, 172.36 0.1 M171.97 24.94 C180.89 17.77, 186.69 7.14, 193.62 0.04 M171.97 24.94 C178.89 17.26, 186.14 9.82, 193.62 0.04 M193.23 24.87 C200.38 16.55, 208.29 7.21, 214.22 0.72 M193.23 24.87 C199.22 19.01, 203.28 12.98, 214.22 0.72 M214.49 24.8 C219.6 18.14, 227.29 6.97, 234.17 2.16 M214.49 24.8 C219.79 18.24, 226.4 11.63, 234.17 2.16" stroke="#ffc9c9" stroke-width="2" fill="none"></path><path d="M6.1 0 C51.1 -1.95, 98 -1.77, 229.96 0 M6.1 0 C61.64 0.32, 117.9 0.41, 229.96 0 M229.96 0 C232.19 -1.8, 236.05 3.7, 236.06 6.1 M229.96 0 C235.48 -1.5, 235.42 1.05, 236.06 6.1 M236.06 6.1 C234.86 11.31, 235.99 14.31, 236.06 18.29 M236.06 6.1 C235.43 10.31, 236.05 15.01, 236.06 18.29 M236.06 18.29 C234.33 20.89, 233.25 24.05, 229.96 24.39 M236.06 18.29 C237.25 20.48, 232.22 25.58, 229.96 24.39 M229.96 24.39 C160.4 24.84, 89.36 22.6, 6.1 24.39 M229.96 24.39 C141.95 22.51, 53.93 22.41, 6.1 24.39 M6.1 24.39 C2.03 22.49, -1.82 21.28, 0 18.29 M6.1 24.39 C1.74 23.82, -2.14 23.8, 0 18.29 M0 18.29 C0.62 12.65, 0.33 8.51, 0 6.1 M0 18.29 C0.21 14.4, 0.43 9.27, 0 6.1 M0 6.1 C1.48 1.18, 3.42 -0.92, 6.1 0 M0 6.1 C0.87 0.47, 3.49 0.84, 6.1 0" stroke="transparent" stroke-width="4" fill="none"></path></g><g stroke-linecap="round"><g transform="translate(402.2032841750977 333.04883764419816) rotate(0 -34.41797187252109 22.22295640182395)"><path d="M-0.72 0.04 C-11.96 7.53, -56.47 36.87, -67.8 44.39 M1.1 -0.98 C-10.17 6.75, -56.45 38.54, -68.2 45.9" stroke="#e03131" stroke-width="4" fill="none"></path></g></g><mask></mask><g stroke-linecap="round"><g transform="translate(348.43604664575946 315.74952399207854) rotate(0 20.681545219124132 34.552069497473184)"><path d="M-0.97 0.6 C5.83 11.99, 34.4 57.64, 41.5 69.06 M0.72 -0.14 C7.31 11.39, 33.91 58.81, 40.63 70.58" stroke="#e03131" stroke-width="4" fill="none"></path></g></g><mask></mask><g transform="translate(448.91069231790766 10) rotate(0 114.21991729736328 12.5)"><text x="0" y="17.52" font-family="Virgil, Segoe UI Emoji" font-size="20px" fill="#1e1e1e" text-anchor="start" style="white-space: pre;" direction="ltr" dominant-baseline="alphabetic">Capacity factor = 1.25</text></g></svg>